<svg xmlns="http://www.w3.org/2000/svg" xmlns:xlink="http://www.w3.org/1999/xlink" width="1070.104" height="309.881" viewBox="0 0 1070.104 309.881">
  <defs>
    <linearGradient id="linear-gradient" x1="0.829" y1="0.126" x2="0.5" y2="0.74" gradientUnits="objectBoundingBox">
      <stop offset="0" stop-color="#8fbc6d"/>
      <stop offset="1" stop-color="#028e89"/>
    </linearGradient>
    <linearGradient id="linear-gradient-2" x1="0.5" x2="0.5" y2="1" gradientUnits="objectBoundingBox">
      <stop offset="0" stop-color="#035986"/>
      <stop offset="1" stop-color="#4d31ab"/>
    </linearGradient>
  </defs>
  <g id="main-pic" transform="translate(-7800.248 -365.681)">
    <g id="组_4385" data-name="组 4385" transform="translate(-267.246 53.903)">
      <path id="路径_4890" data-name="路径 4890" d="M1508.832,737.182a77.768,77.768,0,0,0-26.589,1.769c-12.543,3.238-24.885,10.164-31.6,21.6q-.42.726-.813,1.472t-.734,1.511q-.348.764-.661,1.545t-.583,1.576q-.275.8-.5,1.6t-.426,1.625q-.2.818-.347,1.645t-.264,1.66q-.112.833-.179,1.671t-.1,1.677q-.028.84-.017,1.68t.067,1.68q.05.838.146,1.674t.236,1.665q.134.829.313,1.651t.392,1.634c2.931,10.952,11.283,19.557,20.945,25.051,17.935,10.194,37.681,10.3,57.119,4.964l.891-.517c4.8-.178,30.625,17.7,38.426,20.479-.252-.217-.482-.447-.729-.666a10.493,10.493,0,0,1-1.407-1.416c-2.393-3.129-14.965-28.435-14.668-31.235,1.076-4.2,6.479-9.624,7.97-16.794,1.883-9.026-1.183-18.959-6.21-26.472C1539.922,745.6,1524.929,740.356,1508.832,737.182Z" transform="translate(7478 -425)" fill="#02010c"/>
      <path id="路径_4891" data-name="路径 4891" d="M1516.492,741.148q-2.8-.309-5.6-.4t-5.622.025q-2.808.12-5.6.453t-5.549.879c-12.426,2.546-25.07,8.967-32.2,19.8a31.845,31.845,0,0,0-4.742,24c2.141,9.976,9.332,18.281,17.717,23.744,16.759,10.925,36.314,11.512,55.3,7.45a28.369,28.369,0,0,1,5.717-2.239c3.52,3.281,26.068,15.363,31.09,17.2-2.589-2-13.592-23.852-14.062-27.423,3.144-6.237,7.555-9.663,8.861-17.163a33.112,33.112,0,0,0-5.992-25.06C1546.517,749.352,1531.732,743.682,1516.492,741.148Z" transform="translate(7469.663 -426.725)" fill="#f5f5f4"/>
      <g id="组_4390" data-name="组 4390" transform="translate(-9 -1)">
        <path id="路径_4892" data-name="路径 4892" d="M1558.9,836.115c2.2-.511,4.473-.891,6.524.3a6,6,0,0,1,.56.36,5.751,5.751,0,0,1,.521.417,6.045,6.045,0,0,1,.477.469,5.58,5.58,0,0,1,.426.517q.2.269.37.558t.308.593q.134.3.241.622a6.322,6.322,0,0,1,.179.644q.067.3.106.6a5.441,5.441,0,0,1,.045.6,5.514,5.514,0,0,1-.011.606q-.022.3-.073.6t-.135.591a5.242,5.242,0,0,1-.19.576,5.131,5.131,0,0,1-.247.554,5.758,5.758,0,0,1-.3.527,7.2,7.2,0,0,1-4.887,3.192,6.156,6.156,0,0,1-3.52.482,5.023,5.023,0,0,1-3.677-2.147,7.328,7.328,0,0,1-.9-5.428C1555.253,838.773,1556.794,837.528,1558.9,836.115Z" transform="translate(7430.292 -468.446)" fill="#2f997c" stroke="#050318" stroke-width="3"/>
        <path id="路径_4893" data-name="路径 4893" d="M1535.2,764.214a30.624,30.624,0,0,1,8.026-.161c4.59.685,9.383,2.9,12.129,6.751,3.122,4.376,3.52,12.815-.073,17.092-1.777,2.112-4.887,3.89-6.036,6.413-.74,1.635.174,4.239-.135,6.106-1.693,1.651-6,2.569-8.345,2.5a4.582,4.582,0,0,1-3.6-1.686c-1.81-2.184-1.586-8.231-1.485-10.965,3.049-2.7,7.2-5.359,7.886-9.7.252-1.6-.353-2.4-1.267-3.594a6.31,6.31,0,0,0-4.075-.9c-6.938.743-5.027,6.709-8.278,10.371-.062.071-.129.136-.2.2-3.206-.57-6.861-.98-9.881-2.18a4.584,4.584,0,0,1-2.483-2.757,5.655,5.655,0,0,1,.521-4.417C1521.522,770,1527.855,766.606,1535.2,764.214Z" transform="translate(7446.737 -436.898)" fill="#050318"/>
        <path id="路径_4894" data-name="路径 4894" d="M1538.21,768.341a23.287,23.287,0,0,1,12.5,1.682c2.068.943,4.422,2.889,5.207,5.071a10.213,10.213,0,0,1,1.536,4.507c1.255,7.829-5.694,9.714-8.4,15.722-.678,1.507-.639,3.8-.7,5.444-2.315,1.321-5.638,1.4-8.256,1.762.869-1.874.527-2.813.129-4.746-.9-4.343,1.227-4.735,3.312-7.922.045-.066.084-.134.129-.2a8.727,8.727,0,0,0,2.813-1.86,6.718,6.718,0,0,0,1.827-4.909,7.736,7.736,0,0,0-2.533-5.473,7.5,7.5,0,0,0-5.638-2.022c-6.978.444-6.709,6.039-10.38,10.04-.084.09-.168.175-.258.262q-1.615-.372-3.223-.763c-2.4-.591-3.453-.377-4.753-2.535a4.858,4.858,0,0,1,.454-2.668C1525.19,773.715,1532.045,770.272,1538.21,768.341Z" transform="translate(7444.818 -438.784)" fill="#2f997c"/>
      </g>
    </g>
    <g id="组_4387" data-name="组 4387" transform="translate(295.752 141.445)">
      <path id="路径_4871" data-name="路径 4871" d="M82.818,685.22c1.058,6.034,1.547,12.172,2.424,18.236q2.251,15.56,4.77,31.078c.851,5.228,2.074,10.6,2.49,15.873,5.1.365,12.446,1.254,16.936-1.735l1.788.594c2.292,3.3,18.022,4.352,22.044,7.733a7.692,7.692,0,0,1,2.651,5.447,4.281,4.281,0,0,1-1.109,3.24c-2.306,2.449-7.024,2.986-10.26,3.1-4.766.167-26.944.179-30.379-.828-1.579-.463-2.334-2.513-3.7-3.044-2.465-.956-6.132.77-8.27-1.472-3.228-3.384,1.449-11.152,1.349-15.114-.026-1.014-1.771-.852-2.558-1.51-.125-3.364,1.12-7.239,1.493-10.632,1.14-10.38,2.152-21.525,1.264-31.952-.881-5.894-1.979-11.919-2.33-17.867l.86-.2Z" transform="translate(7439.083 -234.754)" fill="#050318"/>
      <path id="路径_4872" data-name="路径 4872" d="M86,860.725c2.061,1.123,6.007,1.276,7.375,2.956.481,1.343.085,2.68-.177,4.034a21.142,21.142,0,0,1-5.581-.223,3.406,3.406,0,0,1-2.175-1.579C84.58,864.211,85.428,862.387,86,860.725Z" transform="translate(7436.646 -339.261)" fill="#243223"/>
      <path id="路径_4873" data-name="路径 4873" d="M89.385,839.707a15.1,15.1,0,0,1,3.52.109,5.715,5.715,0,0,1,2.648,2.537c1.142,2.208.474,4.476-.169,6.695a27.137,27.137,0,0,1-7.687-2.41C88.17,844.318,88.817,842.007,89.385,839.707Z" transform="translate(7435.085 -326.717)" fill="#f5f5f4"/>
      <path id="联合_3" data-name="联合 3" d="M21.182,139.021c-.415-5.274-1.639-10.645-2.49-15.874q-2.519-15.519-4.77-31.078c-.878-6.063-1.367-12.2-2.425-18.236Q9.729,60.221,8.161,46.585C7.653,42.073,7.514,37,6.485,32.6c-.768-3.29-3.533-6.158-4.511-9.5C.488,18-1.263,4.729,1.321.039c.972-.214,2.365.5,3.3.83,7.691,3,15.46,5.79,23.179,8.713,5.109,1.935,10.244,4.155,15.46,5.766a3.418,3.418,0,0,0,1.673.922c.912,28.07-1.1,56.36-2.908,84.361l-1.556,23.016c-.3,4.254-1.033,8.946-.658,13.179.031.352.059.7.1,1.054l-1.788-.595c-2.557,1.7-6.039,2.146-9.5,2.146C25.991,139.432,23.379,139.178,21.182,139.021Zm-9.749-4.373c1.656-9.076,2.126-18.361,2.651-27.556a3.529,3.529,0,0,1,.484.825c.9,2.4,4.407,25.966,3.994,26.846l-1.514.22Z" transform="translate(7510.403 376.633)" fill="url(#linear-gradient)"/>
      <g id="组_4386" data-name="组 4386" transform="translate(7544.202 233.236)">
        <path id="路径_4895" data-name="路径 4895" d="M165.487,195.013c-3.132-9.4-3.375-19.2,1.108-28.248a33.984,33.984,0,0,1,19.565-16.831q.4-.131.8-.252t.806-.232q.4-.111.812-.212t.817-.192q.409-.091.821-.172t.825-.151q.413-.071.828-.131t.832-.111q.416-.05.834-.09t.836-.07q.418-.03.837-.049t.838-.028q.42-.009.839-.008t.839.013q.419.012.838.034t.837.055q.418.032.835.075t.833.1q.416.053.831.116t.828.136q.413.073.824.157t.82.177q.409.093.816.2t.81.217q.4.113.8.237t.8.257q.4.133.792.276t.785.3q.39.153.777.315t.769.334q.382.172.761.353t.752.372a33.213,33.213,0,0,1,14.458,45.494c-3.919,7.442-11.018,13.819-19.129,16.321-3.6,1.11-17.084,1.6-17.237,1.725a7.809,7.809,0,0,0-.732,1.32c-.207,1.055-.952,3.265-.409,4.11a12.658,12.658,0,0,1,4.592,1.823c1.246,2.192-.314,7.7-.979,10.136-.32,1.173-.765,2.893-1.863,3.564-1.51.922-4.21.674-5.946.669-.872,2.981-3.319,14.685-5.255,15.98a6.126,6.126,0,0,1-3.127-.32c-.847-1.375.151-2.529-.5-3.737-1.721,1.907-2.8,4.257-4.439,6.264-1.984,2.433-14.294,15.489-14.941,17.4l-.842-.077-.544.53-3.384,3.118a28.576,28.576,0,0,1-11.308-7.952l1.278-.665c3.49,2.378,5.6,5.254,9.673,6.962,7.463-6.9,23.794-24.023,27.338-33.522a111.21,111.21,0,0,1-7.638-8.949l.7-.726c3.152-1.957,3.526-7.417,5.591-10.4.987-1.424,3.479-1.6,4.23-2.978a37.616,37.616,0,0,0,1.757-5.321C175.013,209.248,169.676,203.018,165.487,195.013Z" transform="translate(-140.648 -148.236)" fill="#040424"/>
        <path id="路径_4896" data-name="路径 4896" d="M250.8,311.6c-.309,1.376-.475,2.951-1.548,3.953l-.659-1.351a6.119,6.119,0,0,1-.918,3.224l-.773-.2a2.959,2.959,0,0,1-1.162-2.359,9.175,9.175,0,0,1,2.5-5.042c.553-.507,1.436-.248,2.162-.2A3.7,3.7,0,0,1,250.8,311.6Z" transform="translate(-203.224 -244.274)" fill="#f5f5f4"/>
        <path id="路径_4897" data-name="路径 4897" d="M237.211,367.829l.369.647c-.966,3.086-2.659,12.881-5.016,14.4a2.89,2.89,0,0,1-.335-1.936c.343-2.163,2.159-9.721,3.055-11.354A6.892,6.892,0,0,1,237.211,367.829Z" transform="translate(-195.154 -278.995)" fill="#f5f5f4"/>
        <path id="路径_4899" data-name="路径 4899" d="M203.143,197.153a33.1,33.1,0,0,1-.273-24.97q.3-.728.629-1.44t.7-1.407q.367-.7.767-1.372t.833-1.333q.433-.656.9-1.29t.96-1.245q.495-.61,1.019-1.2t1.077-1.145q.552-.559,1.131-1.091t1.183-1.034q.6-.5,1.233-.975t1.278-.913q.65-.441,1.322-.85t1.362-.784q.69-.375,1.4-.717t1.432-.647q.725-.3,1.465-.563t1.491-.491q.751-.227,1.513-.417t1.532-.342q.77-.152,1.547-.267t1.557-.191q.781-.077,1.565-.115t1.568-.038q.785,0,1.569.039t1.565.115q.781.077,1.557.192t1.546.268q.77.153,1.532.343t1.513.417q.751.227,1.49.491t1.465.563a32.864,32.864,0,0,1,17.713,17.582q.29.731.543,1.476t.47,1.5q.216.757.4,1.522t.32,1.54q.141.774.244,1.553t.167,1.564q.065.784.091,1.57t.013,1.572q-.013.786-.064,1.571t-.141,1.566q-.09.781-.218,1.557t-.294,1.545q-.166.769-.37,1.528t-.445,1.509q-.241.749-.518,1.485t-.59,1.458q-.152.36-.314.717t-.332.709q-.17.352-.35.7t-.366.691q-.188.343-.384.682t-.4.672q-.2.333-.417.662t-.434.651q-.221.323-.45.64t-.466.629q-.237.312-.481.617t-.5.6q-.252.3-.511.593t-.526.579q-.267.286-.54.566t-.554.553q-.281.273-.568.538t-.581.524q-.294.259-.594.51t-.606.494q-.307.244-.619.479t-.631.464q-.318.228-.642.448t-.653.432q-.329.212-.663.415t-.674.4q-.339.195-.684.381t-.693.364q-.349.178-.7.347t-.71.329q-.357.16-.718.311t-.725.294c-6.48,2.538-12.982,2.511-19.736,1.341-.817-.222-1.614-.488-2.408-.781C213.466,211.158,207.081,205.708,203.143,197.153Z" transform="translate(-176.321 -150.667)" fill="#f5f5f4"/>
        <path id="路径_4901" data-name="路径 4901" d="M228.7,216.23c-5.884-2.873-10.556-6.5-13.807-12.276A26.689,26.689,0,0,1,212.528,183a27.368,27.368,0,0,1,13.008-16.542q.6-.333,1.215-.635t1.245-.573q.63-.271,1.273-.51t1.3-.445q.654-.206,1.317-.379t1.335-.313q.671-.139,1.349-.245t1.359-.177q.682-.072,1.366-.108t1.37-.04q.686,0,1.371.029t1.367.1q.682.066,1.36.167t1.35.235q.672.135,1.337.3t1.32.369q.662.195,1.313.423t1.29.488q.639.26,1.265.551t1.236.613q.61.322,1.2.674t1.169.733q.575.381,1.131.79t1.091.845q.535.436,1.048.9t1,.949q.489.487.954,1t.9,1.043q.439.533.85,1.087t.795,1.127q.384.574.738,1.166t.679,1.2q.314.59.6,1.2t.539,1.223q.254.619.479,1.248t.416,1.27q.193.64.353,1.289t.29,1.305q.129.656.225,1.318t.16,1.327q.064.665.094,1.333t.028,1.337q0,.669-.037,1.337t-.1,1.333q-.068.665-.169,1.326t-.233,1.316q-.133.655-.3,1.3t-.362,1.287a28.37,28.37,0,0,1-14.133,16.7,3.167,3.167,0,0,0-1.26-1.217c6.7-3.761,11.824-9.149,13.93-16.68q.168-.612.306-1.231t.245-1.245q.107-.625.183-1.255t.12-1.263q.044-.633.058-1.267t-.005-1.269q-.018-.634-.068-1.267t-.131-1.262q-.081-.629-.193-1.254t-.255-1.242q-.143-.618-.316-1.229t-.377-1.211q-.2-.6-.436-1.191t-.495-1.168q-.262-.578-.552-1.142t-.608-1.113q-.32-.552-.667-1.088t-.719-1.055q-.373-.519-.77-1.018t-.819-.979q-.422-.48-.866-.938t-.911-.894q-.466-.436-.953-.849t-.994-.8q-.507-.388-1.032-.752t-1.067-.7q-.542-.337-1.1-.647t-1.13-.593q-.572-.283-1.158-.537t-1.183-.48q-.6-.225-1.2-.421t-1.224-.362a25.508,25.508,0,0,0-19.427,2.314c-5.475,3.147-10.314,8.856-11.947,15-1.708,6.427-1.47,13.966,1.945,19.781a26.621,26.621,0,0,0,14.021,12.151Z" transform="translate(-182.776 -157.049)" fill="#040424"/>
        <path id="路径_4902" data-name="路径 4902" d="M232.9,217.344a26.621,26.621,0,0,1-14.021-12.151c-3.416-5.814-3.654-13.353-1.945-19.781,1.633-6.144,6.473-11.853,11.947-15a25.508,25.508,0,0,1,19.427-2.314q.617.166,1.224.362t1.2.421q.6.226,1.183.48t1.158.537q.572.282,1.13.593t1.1.647q.542.337,1.067.7t1.032.752q.507.389.994.8t.953.849q.466.436.911.894t.866.938q.421.479.819.979t.77,1.018q.373.519.719,1.055t.667,1.088q.318.549.608,1.113t.552,1.142q.262.578.495,1.168t.436,1.191q.2.6.377,1.211t.316,1.229q.143.618.255,1.242t.193,1.254q.081.629.131,1.262t.068,1.267q.018.634.005,1.269t-.058,1.267q-.044.633-.12,1.263t-.183,1.255q-.107.625-.245,1.245t-.306,1.231c-2.106,7.531-7.228,12.92-13.93,16.68C245.828,219.042,239.993,219.519,232.9,217.344Z" transform="translate(-185.458 -159.501)" fill="#f5f5f4"/>
      </g>
      <path id="路径_4875" data-name="路径 4875" d="M109.891,870.347c3.91,1.512,32.232,5.467,35.442,4.365l.2-.072c2.158-.759,3.493-2.417,5.391-3.555L152,872.412a7.169,7.169,0,0,1-3.413,3.753c-4.017,1.852-29.818,1.335-35.05.75a17.352,17.352,0,0,1-3.814-.972C109.7,874.086,109.83,872.2,109.891,870.347Z" transform="translate(7421.97 -344.99)" fill="#243223"/>
      <path id="路径_4876" data-name="路径 4876" d="M127.182,847.231c1.343-.161,4.939,1.695,6.344,2.238a55.819,55.819,0,0,0,6.433,2.32c2.941.736,6.605.928,9.3,2.352.8.421.792.515,1.053,1.318a5.182,5.182,0,0,1-1.944,2.805c-3.243,2.4-8.916.965-12.651.467-7.913-1.066-16.96-1.4-24.539-3.812.232-2.1.658-4.2,1.006-6.29A45.611,45.611,0,0,0,127.182,847.231Z" transform="translate(7421.099 -331.22)" fill="#f5f5f4"/>
      <path id="路径_4898" data-name="路径 4898" d="M229.7,326.56c1.761.238,3.572,1.485,5.353,1.935,1.847.467,4.01.216,5.706.739.673.208.681.381.967,1.01-.081,2.237-.687,8.931-2.157,10.548-1.235,1.359-5.228.663-6.931.623a16.216,16.216,0,0,0-4.6,3.46,31.394,31.394,0,0,1-4.784-5.445C225.178,335.164,226.56,330.1,229.7,326.56Z" transform="translate(7354.364 -21.186)" fill="#f5f5f4"/>
      <path id="路径_4900" data-name="路径 4900" d="M275.5,289.143a3.167,3.167,0,0,1,1.26,1.217,28.688,28.688,0,0,1-22.322,1.058l-.257-.1,1.519-1.338C262.787,292.158,268.622,291.681,275.5,289.143Z" transform="translate(7335.951 1.095)" fill="#040424"/>
      <path id="路径_4904" data-name="路径 4904" d="M156.337,540.647a3.416,3.416,0,0,0,1.673.922c.912,28.07-1.1,56.36-2.907,84.361l-1.556,23.016c-.3,4.254-1.033,8.946-.658,13.179.031.352.059.7.1,1.054l-1.788-.594c-.481-6.894,1.172-19.63,1.672-27.043,1.6-23.768,3.111-47.5,3.479-71.325C156.469,556.435,157.279,548.383,156.337,540.647Z" transform="translate(7397.324 -148.666)" fill="#040424"/>
      <path id="路径_4907" data-name="路径 4907" d="M92.729,230.113c1.51-.516,2.74-1.523,4.2-2.066.857-.318.9-.191,1.708.183a2.042,2.042,0,0,1,.306.869,9.439,9.439,0,0,1-2.356,6.021l-.277,1.773c.241,1.235-1.123,5.562-1.085,7.936.922,1.217,3.427,3.939,3.195,5.605-.265,1.9-1.749,3.534-2.35,5.369-.732,2.234-.438,9.183-2.192,10.381-2.229,1.522-8.453.288-10.984-.064,2.593,3.7,4.7,7.044,5.174,11.679,3.663,4.29,6.675,8.938,10.124,13.374,3.689-3.684,9.839-10.628,14.452-12.549l.909.2-.7.726a111.209,111.209,0,0,0,7.638,8.949c-3.544,9.5-19.875,26.624-27.338,33.522-4.072-1.708-6.183-4.584-9.673-6.962l-1.278.665A28.576,28.576,0,0,0,93.51,323.68l3.384-3.118.544-.53.842.077c-.078,11.585-1.025,25.661.28,36.944a20.161,20.161,0,0,0-5.226-1.733,3.417,3.417,0,0,1-1.673-.922c-5.216-1.61-10.351-3.831-15.46-5.765-7.719-2.923-15.487-5.716-23.178-8.713-.932-.329-2.325-1.044-3.3-.83-2.584,4.69-.833,17.961.654,23.053.977,3.347,3.743,6.215,4.511,9.5,1.029,4.405,1.167,9.476,1.675,13.989q1.569,13.636,3.337,27.248l-.541.944-.86.2c-.766-3.427-1.034-7.123-1.477-10.608-1.272-10-2.064-20.1-3.515-30.066-.41-2.817-2.645-5.5-3.772-8.108-3.725-8.637-2.858-18.035-1.949-27.119-1.743-.63-3.521-1.157-5.291-1.7q2.62-7.6,4.776-15.353t3.839-15.614c2.029-9.484,3.217-19.349,6.889-28.392,1.323-3.258,3.806-6,5.418-9.111,1.156-2.232,1.23-4.908,2.685-7.049.926-1.363,2.732-.258,4.023-.589.9-.231,1.441-1.44,1.946-2.163-.492-.658-.981-1.327-1.411-2.028-1.452-2.369-6.339-13.43-5.61-15.754.779-2.486,3.616-2.828,5.341-4.325,2.106-1.828,2.5-3.768,5.22-5.29C81.231,227.62,86.86,228.475,92.729,230.113Z" transform="translate(7462 37.583)" fill="#02010c"/>
      <path id="路径_4908" data-name="路径 4908" d="M157.947,312.119a2.464,2.464,0,0,1-.939,2.1c-1.922,1.593-5.325,1.114-7.639.923l.006-.645C151.148,312.066,155.2,313.826,157.947,312.119Z" transform="translate(7398.361 -12.586)" fill="#272728"/>
      <path id="联合_4" data-name="联合 4" d="M48.531,93.573a3.416,3.416,0,0,1-1.673-.922c-5.216-1.611-10.351-3.831-15.46-5.766C23.679,83.962,15.91,81.17,8.22,78.172l.988-1.351Q4.567,75.165,0,73.312a250.938,250.938,0,0,0,7.3-26.5c2.972-13.143,3.729-30,13.708-40.081q1.294.061,2.582.214C33.436,8.178,39.6,13.5,45.511,21.1c-4.906-3.54-10.97-9.287-17.35-9.441a8.179,8.179,0,0,0-6.028,2.4,14.31,14.31,0,0,0-4.042,9.316C18.1,30.653,32.113,48.7,37.4,53.982a28.577,28.577,0,0,0,11.308,7.952l3.384-3.118.544-.529.842.077c-.079,11.585-1.025,25.661.28,36.944A20.163,20.163,0,0,0,48.531,93.573ZM38.678,53.316c-4.67-5.336-18.912-22.888-19.008-29.57a11.853,11.853,0,0,1,3.422-8.308,7.463,7.463,0,0,1,5.519-2.232c8.08.223,18.586,11.7,23.924,17.236-2.14,2.312-4.557,4.53-6.563,6.941A3.538,3.538,0,0,0,44.83,39.6l.071.27-.072-.02q0,.087.01.179l.3-.093-.107-.029A.431.431,0,0,0,45.1,39.9C46.958,39.537,56.224,28.92,58.208,27c3.215-3.1,6.859-5.872,9.843-9.2a111.2,111.2,0,0,0,7.638,8.949c-3.544,9.5-19.875,26.624-27.338,33.522C44.279,58.57,42.168,55.694,38.678,53.316ZM44.9,39.874l.136.037c-.042,0-.084,0-.125,0ZM40.554,13.06c-5.03-5.387-13-7-19.921-8.159L23.109,0c3.753.9,7.342,2.282,11.064,3.192,1.951,2.306,6.564,7.221,6.875,10.125Z" transform="translate(7506.802 299.329)" fill="url(#linear-gradient-2)"/>
      <path id="路径_4910" data-name="路径 4910" d="M129.586,252.992a23.788,23.788,0,0,1,5.632.4c3.462.957,1.278,4.334,1.99,6.646.5,1.618,2.155,3.279,3,4.787,1.415,2.516-2.43,3.232-3.372,4.883-1.049,1.838.3,3.764-.237,5.751-.711.717-.936.982-2.015.992-2.361.022-4.236-1.974-5.734-3.53l-.347.062a5.9,5.9,0,0,0,1.794,3.314,24.022,24.022,0,0,0-4.13,3.49,1.784,1.784,0,0,1-.569.625,29.378,29.378,0,0,0-9.905-4.216,48.74,48.74,0,0,0,5.45-8.731c1.049-2.424.44-2.43-.345-4.677a2.265,2.265,0,0,1,.363-2.2c2.393-1.029,7.206,1.717,9.78,2.312l.149-.939a7.286,7.286,0,0,0-1.632-1.218c-.521-1.2.248-2.425.4-3.7A29.182,29.182,0,0,0,129.586,252.992Z" transform="translate(7418.412 22.621)" fill="#f5f5f4"/>
      <path id="路径_4911" data-name="路径 4911" d="M107.821,258.31c-2.019-2.826-7.185-13.574-6.551-16.932.42-2.23,3.2-2.318,4.661-3.44,1.895-1.451,2.2-3.8,4.511-5.225,7.75-4.775,13.116.443,19.319-1.534a14.432,14.432,0,0,0,3.623-2.431c-.473,2.322-1.563,4.553-1.827,6.9l-.277,1.773-.317.074q-.583.879-1.129,1.782c-1.72,0-3.642-1.357-5.324-1.84a4.131,4.131,0,0,0-3.34.322c-2,1.158-1.089,5.425-1.647,7.587-.884,1.012-4.24-.945-6.018-.485-4.152,1.072-1.729,4.136-1.9,6.675C111.494,253.266,108.784,256.739,107.821,258.31Z" transform="translate(7427.035 37.058)" fill="#272728"/>
      <path id="路径_4914" data-name="路径 4914" d="M112.388,456.228l.544-.53.842.077c-.078,11.585-1.025,25.661.28,36.944a20.159,20.159,0,0,0-5.226-1.733,3.418,3.418,0,0,1-1.673-.922c-5.216-1.61-10.351-3.831-15.46-5.765-7.719-2.923-15.487-5.716-23.178-8.713l.988-1.351c14.241,4.941,28.155,11.274,42.555,15.673C112,478.706,112.27,467.432,112.388,456.228Z" transform="translate(7446.506 -98.082)" fill="#050318"/>
    </g>
    <path id="路径_5168" data-name="路径 5168" d="M685.831,465.82l24.131,0,.028,31.149c9.849-.237,19.721-.139,29.573-.171l-.065,23.167-29.9-.022c-.114,11.533.056,23.084.091,34.618l-23.705-.009.01-34.564H656.007l0-23.442,29.926.113Z" transform="translate(7842.048 52)" fill="#5db939"/>
    <path id="路径_5169" data-name="路径 5169" d="M89.044,448.679c.273-.038.546-.085.82-.114,15.371-1.612,29.6,3.632,41.6,12.948-5.57,6.263-10.6,13.2-15.794,19.787a36.042,36.042,0,0,0-20.155-8.361c-4.038-.271-8.971.393-12.03,3.275a9.464,9.464,0,0,0-3.244,6.838c.222,8.656,19.02,11.109,25.446,13.463,5.655,2.072,11.428,4.809,15.952,8.855a29.753,29.753,0,0,1,9.985,21.466c.407,9.77-1.756,18.784-8.543,26.082-8.289,8.912-19.175,11.384-30.9,11.869-16.133-.206-27.234-4.79-40.04-14.249,4.338-6.871,9.45-13.417,13.181-20.636,7.468,5.911,16.14,10.624,25.947,10.5,3.953-.049,9.653-.81,12.487-3.915a10.082,10.082,0,0,0,2.537-7.15c-.955-9.119-20.136-11.808-27.137-14.3a44.361,44.361,0,0,1-12.429-6.5,29.089,29.089,0,0,1-11.2-19.825c-1.173-9.374.711-18.812,6.608-26.341C68.853,453.807,78.52,450.025,89.044,448.679Z" transform="translate(7842.048 52)" fill="#1c4d7a"/>
    <path id="路径_5170" data-name="路径 5170" d="M482.571,448.7c.921-.075,1.83-.124,2.755-.132,17.79-.149,32.017,6.532,44.615,18.865-5.507,6.1-12.362,11.376-18.975,16.187q-1.042-1.056-2.171-2.019t-2.335-1.825q-1.207-.863-2.483-1.62t-2.612-1.4q-1.337-.644-2.723-1.172t-2.813-.935q-1.427-.407-2.883-.69t-2.931-.441c-9.234-1.008-18.919,1.366-26.163,7.295a32.443,32.443,0,0,0-11.7,22.633c-.824,9.21,1.446,18.128,7.461,25.275a33.824,33.824,0,0,0,23.1,11.663c12.29,1.031,20.638-4.026,29.627-11.736l5.961,4.623a153.537,153.537,0,0,1,12.523,10.887c-10.212,11.644-23.376,19.067-38.961,20.314-17,1.361-34.62-3.377-47.639-14.65-11.447-9.912-17.551-23.962-18.516-38.919q-.093-1.435-.116-2.873t.024-2.875q.047-1.437.164-2.87t.3-2.859q.187-1.426.443-2.841t.582-2.815q.325-1.4.718-2.784t.853-2.746q.46-1.362.986-2.7t1.116-2.65q.591-1.311,1.245-2.591t1.37-2.528q.715-1.248,1.491-2.458t1.609-2.383q.834-1.171,1.724-2.3t1.834-2.214C451.317,455.645,465.848,449.854,482.571,448.7Z" transform="translate(7842.048 52)" fill="#1c4d7a"/>
    <path id="路径_5171" data-name="路径 5171" d="M145.527,450.974c23.746-.259,47.525.011,71.275.035l-.014,23-46.3-.018v20.376l34.094.013,0,23.244-34.006-.077-.005,11.577.025,10.362,45.978.028.014,23.692c-23.661-.546-47.4-.053-71.078-.177Z" transform="translate(7842.048 52)" fill="#1c4d7a"/>
    <path id="路径_5177" data-name="路径 5177" d="M605.278,451.034l25.214-.05.036,111.9c-7.979,1-17.1.123-25.2.093l-.04-44.007q-18.888-.206-37.776-.026l0,44.105-25.51-.08-.44-111.977,25.911,0,.011,45.184,37.842-.047Z" transform="translate(7842.048 52)" fill="#1c4d7a"/>
    <path id="减去_12" data-name="减去 12" d="M-7842.049,60.306h0c3.151-8.885,6.647-17.787,10.028-26.4l.014-.034c1.87-4.763,3.8-9.688,5.655-14.549,8.914-23.57,17.816-47.567,26.459-71.324l25.78.043c3,9.89,6.878,19.821,10.633,29.426,1.5,3.834,3.048,7.8,4.527,11.727,8.742,23.618,17.793,47.432,26.9,70.781l-27.435,0-.183-.536-.623-1.837-.008-.024c-1.907-5.625-3.879-11.441-6.177-17.031l-7.863-.008-33.91-.014-6.719,19.646-27.082.138Zm55.028-81.5h0c-1.336,3.9-2.733,7.866-4.084,11.7l-.042.118c-3.242,9.2-6.593,18.717-9.42,28.167l15.1.024,11.86-.089c-1.417-4.234-2.871-8.676-4.153-12.6l-.019-.057c-2.939-8.98-5.979-18.265-9.247-27.271Z" transform="translate(15906.135 555.015)" fill="#1c4d7a"/>
    <path id="减去_13" data-name="减去 13" d="M-7762.609,60.6c-2.868,0-5.787-.044-8.61-.086h-.006c-2.2-.033-4.476-.067-6.706-.08l-6.532-.014c-3.108-5.6-6.125-11.383-9.043-16.971l-.024-.046c-3.922-7.514-7.979-15.284-12.318-22.75-1.414-.05-2.964-.074-4.877-.074-1.045,0-2.106.007-3.133.013-.933.006-1.9.012-2.844.013,0,3.248.014,6.687.024,9.449.039,9.9.079,20.133-.28,30.184-2.94.152-6.131.222-10.042.222-2.389,0-4.812-.026-7.155-.051h-.008c-2.326-.025-4.729-.05-7.075-.05h-.72l-.089-111.989c2.775-.005,6.194-.073,10.153-.152,5.181-.1,11.048-.22,16.925-.22,6.617,0,12.026.15,16.537.457a60.038,60.038,0,0,1,12.535,1.862,38.1,38.1,0,0,1,12.313,6.38,32.65,32.65,0,0,1,8.891,10.6,36.428,36.428,0,0,1,3.843,14.225,39.6,39.6,0,0,1-1.692,14.663A33.1,33.1,0,0,1-7769.315,8.2a37.808,37.808,0,0,1-10.994,8.327c3.608,7.6,7.9,15.06,12.043,22.277l0,0c4.039,7.031,8.216,14.3,11.774,21.707C-7758.379,60.574-7760.381,60.6-7762.609,60.6Zm-44.518-89.593c-2,0-3.96.074-5.854.146-1.383.053-2.688.1-3.906.118-.059,9.438-.05,19.015.026,28.465,1.275.023,2.565.068,3.812.112,1.783.062,3.626.126,5.414.126,5.552,0,11.45-.528,16.967-4.359a13.413,13.413,0,0,0,3.926-10.287c-.054-4.126-1.29-7.393-3.674-9.711C-7794.622-28.469-7801.556-28.993-7807.127-28.993Z" transform="translate(16023.229 554.577)" fill="#1c4d7a"/>
    <g id="组_4391" data-name="组 4391" transform="translate(-28.393 -0.129)">
      <path id="路径_5167" data-name="路径 5167" d="M900.006,451.268c9.369-.255,18.8-.039,28.17-.028-1.6,32.315-.211,58.307-.2,66.12l.069,45.872q-13.961-.255-27.924-.137C899.692,525.833,900.023,488.536,900.006,451.268Z" transform="translate(7842.048 52)" fill="#1c4d7a"/>
      <path id="减去_11" data-name="减去 11" d="M29.952,111.923h0L0,111.91c1.229-3.957,2.875-7.94,4.465-11.792l.005-.013c.694-1.679,1.411-3.415,2.085-5.131l12.972-33.1c2.572-6.568,5.086-13.3,7.517-19.8l0-.006C32.257,28.127,37.645,13.714,43.906,0c3.569.093,7.448.136,12.21.136,2.834,0,5.747-.015,8.317-.029l.7,0h.006C67.542.093,70.029.081,72.471.081l1.634,0c2.121,6.733,4.727,13.516,7.247,20.076l0,0c1.578,4.108,3.209,8.356,4.7,12.539,9.236,26.421,18.953,53.073,28.88,79.215l-30.377-.03c-1.873-5.076-3.345-10.407-4.769-15.562v0l-.049-.178Q79.421,95,79.1,93.855l-8.042-.2c-3.8-.037-7.661-.056-11.469-.056-7.707,0-15.531.077-23.258.229-2.191,5.945-4.338,12.032-6.382,18.091ZM58.138,32.054h0c-2.236,5.931-4.287,12.034-6.27,17.936l-.005.015c-2.317,6.9-4.713,14.028-7.421,20.933l13.259.024,13.233-.021c-.365-1.178-.956-3.178-1.7-5.711C66.11,54.659,60.3,34.987,58.138,32.054Z" transform="translate(8617.099 503.382)" fill="#1c4d7a"/>
    </g>
    <g id="组_4388" data-name="组 4388" transform="translate(5.539 16.343)">
      <path id="路径_5184" data-name="路径 5184" d="M942.115,387.09c-.021-.016-.05-.026-.064-.049-.408-.627-.661-.878-.532-1.655.321-1.917,2.094-3.461,3.654-4.475,3.958-2.571,9.54-1.209,13.82-.353,3.508,1.6,10.312,4.232,11.576,8.145a5.525,5.525,0,0,1-.506,4.532c-1.286,2.388-3.281,3.905-5.468,5.416.607,3.14,1.81,6.5.516,9.567.745,1.137,1.495,1.117,2.762,1.378,7.081,1.461,11.908,7.008,15.913,12.765,11.08,15.928,12.381,31.286,15.965,49.628,1.1,5.6,3.129,11.186,2.969,16.944-.35,12.581-3.773,26.882-.84,39.3,1.3,5.516,5.16,10.36,7.38,15.554,5.27,12.354,8.06,25.538,11.3,38.505.69,2.749,2.31,6.764,2.2,9.535-2.21,1.853-5.55,2.325-8.32,2.851-3.59,4.057-8.7,5.611-14.05,5.8-3.169.112-6.8-.5-9.2-2.667a2.349,2.349,0,0,1,.28-2.676c1.454-2.2,10.779-5.028,13.779-6.794-2.52-12.4-6.018-22.808-12.573-33.785-6.114-10.239-12.342-18.214-16.64-29.649-3.878,5.238-9.182,10.956-12.076,16.72-1.606,3.2-1.539,7-2.977,10.262-1.919,4.346-4.486,8.585-6.747,12.767q-7.465,14.13-15.623,27.872c-1.56,2.674-2.854,5.986-4.793,8.35a8.689,8.689,0,0,1-6.923-2.051c-.968-.743-1.866-1.594-2.759-2.424-2.052.043-4.279.665-6.276.471-4.346-.422-12.133-4.014-15.186-7.057a5.019,5.019,0,0,1-1.338-2.43c.191-.722.058-1.042.8-1.4,2.179-1.033,5-.7,7.337-.459,3.193.326,8.291,1.558,11.285.268,5.117-2.206,11.055-18.355,13.271-23.441,2.614-6,5.705-12.417,7.25-18.776.956-3.939.749-8.269,2.1-12.1,5.665-16.086,16.522-30.269,16.284-47.988-8.277,3.717-23.083,12.477-31.674,12.186.159-1.53.637-1.834,1.6-2.991l-.14-.65-1.462-1.4c-.284-.582-3.852-1.939-3.956-2.579-.38-2.332,4.538-4.709,4.538-4.709a15.766,15.766,0,0,1,5.458,0c-1.764,2.056-4.453,3.033-6.853,4.2,4.4.329,4,.831,7.618,2.427,1.783.787,3.013-.259,4.7-.968-2.337-2.553-4.7-4.917-5.608-8.359.088-.154.172-.309.264-.461.152-.251.314-.5.468-.748,3.989-6.476,13.786-13.717,19.176-19.9-2.955-8.433-7.376-17.929-8.325-26.81-.82-7.688,1.582-13.236,6.261-19.12a21.248,21.248,0,0,1-4.05-.431c-11.425-2.759-3.04-16.9-4.382-24.069A10.678,10.678,0,0,0,942.115,387.09Z" transform="translate(7842.048 52)"/>
      <path id="路径_5185" data-name="路径 5185" d="M925.009,589.261l.37.212c2.647,1.491,6.8,2.3,7.966,5.367a3.363,3.363,0,0,1-1.306,2.037c-3.056-.093-4.155-4.21-6.817-4.742Z" transform="translate(7842.048 52)" fill="#078e76"/>
      <path id="路径_5186" data-name="路径 5186" d="M996.483,491.9c-2.5-2.865-5.922-6.772-5.965-10.715.984-1.334,1.8-1.139,3.39-1.431C994.87,483.49,996.613,488.1,996.483,491.9Z" transform="translate(7842.048 52)" fill="#a7a9ad"/>
      <path id="路径_5187" data-name="路径 5187" d="M993.908,479.759c1.521-.318,1.824-.623,3.21.175,2.091,3.264,2.127,7.74,1.417,11.472-.143.755-.161.582-.688,1.361l-.906-.172-.458-.69C996.613,488.1,994.87,483.49,993.908,479.759Z" transform="translate(7842.048 52)" fill="#70767e"/>
      <path id="路径_5188" data-name="路径 5188" d="M905.77,588.317a59.865,59.865,0,0,0,17.407.48c1.095-.148.945-.054,1.832.464l.213,2.874c-.181.061-.359.129-.542.183C918.011,594.282,911.508,591.518,905.77,588.317Z" transform="translate(7842.048 52)" fill="#2dad82"/>
      <path id="路径_5189" data-name="路径 5189" d="M1010.08,587.873a7.188,7.188,0,0,1,1.02.1c1.31.275,1.39.417,2.11,1.476a3.579,3.579,0,0,1-1.06,2.856c-3.42,3.985-9.4,4.386-14.282,4.655a15.415,15.415,0,0,1-2.687-.633c.237-.047.473-.1.712-.142C1000.78,595.35,1006.86,591.562,1010.08,587.873Z" transform="translate(7842.048 52)" fill="#45b5b8"/>
      <path id="路径_5190" data-name="路径 5190" d="M994.736,495.239l3.568,1.153c.494,2.985.055,6.1-.133,9.1-.61,9.75-1.943,20.96,2.459,29.993l-1.118.2a9.276,9.276,0,0,1-1.543-1.386C991.55,526.361,994.262,505.142,994.736,495.239Z" transform="translate(7842.048 52)" fill="#70767e"/>
      <path id="路径_5191" data-name="路径 5191" d="M942.115,387.09c-.021-.016-.05-.026-.064-.049-.408-.627-.661-.878-.532-1.655.321-1.917,2.094-3.461,3.654-4.475,3.958-2.571,9.54-1.209,13.82-.353-.6,1.561-.808,1.8-.408,3.484a12.053,12.053,0,0,0,4.036,2.967l.464.812-.611.013-.213.4a5.093,5.093,0,0,0-.782-.237c-2.487-.333-5.568.616-8.176.48-1.579-.082-4.4-1.141-5.762-.774l2.645,1.953a1.625,1.625,0,0,1-1.789.068C945.922,388.71,945.215,386.057,942.115,387.09Z" transform="translate(7842.048 52)" fill="#272728"/>
      <path id="路径_5192" data-name="路径 5192" d="M953.447,393.059a40.187,40.187,0,0,1,5.417-1.834l.492.382c-.585,1.381-1.3,2.8-.61,4.242,1.162,2.422,1.716,3.621,1.556,6.44a9.549,9.549,0,0,0,.178,3.151c.243,1-.382,1.564-.879,2.432a4.088,4.088,0,0,1-.571.307c-2.023.694-4.985,2.075-7.048,2.3a5.82,5.82,0,0,1-4.784-1.431c-3.625-3.61-1.655-13.08-1.414-17.818A31.068,31.068,0,0,1,953.447,393.059Z" transform="translate(7842.048 52)" fill="#fefefe"/>
      <path id="路径_5193" data-name="路径 5193" d="M958.949,412.192c5.579-.456,10.026.054,14.646,3.5,15.64,11.648,19.83,38.221,22.516,56.233-6.731.306-13.43.654-20.139,1.3,1.914-1.415,4.12-2.926,5.5-4.887,1.809-2.575,2.389-8.2,1.767-11.212-2.439,2.662-3.318,7.029-5.416,10.018-3.813,5.433-15.649,10.729-21.61,14.063l-.623.342c-2.924,1.592-10.365,6.227-13.568,4.609a8.307,8.307,0,0,1-3.334-4.674,3,3,0,0,1,.894-2.577,53.626,53.626,0,0,1,5.363-5.167c5.571-5.272,12.4-11.011,16.7-17.38,3.666-5.434,2.162-9.412,1.015-15.472-.3-1.606-.6-2.934-2.033-3.9l-.265.51,1.1.061-1.139.121c-.3,4.432.411,8.934.7,13.363a35.528,35.528,0,0,1-4.668,6.6c-2.466-6.951-5.175-14.15-6.944-21.3-1.417-5.725-1.462-11.7,1.756-16.866C953.115,416.344,955.183,413.01,958.949,412.192Z" transform="translate(7842.048 52)" fill="#5db939"/>
      <path id="路径_5194" data-name="路径 5194" d="M973.592,479.672q6.573.547,13.158.936c.062.166.121.334.186.5.109.276.225.548.333.823,1.89,4.829,5.613,8.509,7.467,13.309-.474,9.9-3.186,31.122,3.233,39.064a9.276,9.276,0,0,0,1.543,1.386l1.118-.2c9.62,14.281,13.02,32.542,17.18,49q-4.7.346-9.41.529c-3.33-10.377-6.01-20.208-11.2-29.94-2.858-5.358-6.814-10.081-10.07-15.2-3.579-5.625-6.275-11.82-9.005-17.889,3.318-4.843,6.444-9.479,8.558-14.982-8.49,6.3-20.759,26.295-28.7,35.552a3.661,3.661,0,0,0-1.16,2c.916.876,1.888,1.562,2.062,2.888a5.662,5.662,0,0,1-2.646.737c-.187,1.563.521,2.862.1,4.425-1.8,6.707-16.976,31.557-21.5,38.919a67.733,67.733,0,0,0-8.5-5.1c4.964-7.191,15.586-32.142,18.023-40.793,1.192-4.23.927-8.707,2.332-12.9a114.366,114.366,0,0,1,4.741-10.908c6.182-13.524,11.646-25.316,11.639-40.474,3.2-1.294,6.406-1.486,9.8-1.731-2.658,19.923-15.893,36.243-22.807,54.623,6.579-7.276,19.468-35.551,22.236-45.08A29.083,29.083,0,0,0,973.592,479.672Z" transform="translate(7842.048 52)" fill="#a7a9ad"/>
    </g>
  </g>
</svg>
