<?xml version="1.0" standalone="no"?>
<!DOCTYPE svg PUBLIC "-//W3C//DTD SVG 20010904//EN"
 "http://www.w3.org/TR/2001/REC-SVG-20010904/DTD/svg10.dtd">
<svg version="1.0" xmlns="http://www.w3.org/2000/svg"
 width="480.000000pt" height="480.000000pt" viewBox="0 0 480.000000 480.000000"
 preserveAspectRatio="xMidYMid meet">
<metadata>
Created by potrace 1.14, written by Peter Selinger 2001-2017
</metadata>
<g transform="translate(0.000000,480.000000) scale(0.100000,-0.100000)"
fill="#000000" stroke="none">
<path d="M2139 4385 c-228 -31 -479 -110 -665 -211 -102 -55 -101 -55 -189
-113 -388 -261 -669 -645 -803 -1097 -17 -55 -33 -114 -36 -130 -2 -16 -10
-56 -16 -89 -26 -144 -34 -422 -17 -565 40 -330 137 -601 315 -875 82 -126
131 -187 245 -304 137 -139 284 -254 432 -336 28 -16 64 -36 81 -45 144 -81
421 -170 639 -205 87 -14 439 -13 545 2 113 15 309 64 430 108 199 71 458 228
635 385 355 314 583 745 649 1225 26 185 9 608 -25 651 -7 9 -274 12 -984 13
l-975 2 0 -400 0 -401 564 0 565 0 -10 -28 c-43 -124 -155 -296 -268 -411
-185 -187 -412 -303 -674 -345 -82 -12 -293 -15 -342 -3 -11 3 -40 8 -65 12
-445 74 -847 469 -946 930 -22 104 -26 333 -7 440 71 411 355 764 735 916 78
31 214 68 283 76 79 10 255 9 328 0 196 -27 401 -112 557 -233 39 -30 74 -54
78 -54 9 0 562 554 562 563 0 12 -178 152 -270 213 -248 162 -529 267 -827
308 -124 17 -399 18 -524 1z"/>
</g>
</svg>
