<svg xmlns="http://www.w3.org/2000/svg" width="24" height="24" viewBox="0 0 24 24">
  <g id="smart-search" transform="translate(-1247 -2976)">
    <rect id="矩形_3" data-name="矩形 3" width="24" height="24" transform="translate(1247 2976)" fill="none"/>
    <g id="组_4411" data-name="组 4411" transform="translate(-0.445 -0.389)">
      <path id="路径_5399" data-name="路径 5399" d="M20.328,22.95,14.778,17.4A9.5,9.5,0,1,1,9.5,0h.7a1.2,1.2,0,0,1,.3,2.362,5.357,5.357,0,0,1-1,.038,7.1,7.1,0,1,0,6.812,9.1,1.267,1.267,0,0,1,1.238-1.24,1.2,1.2,0,0,1,1.2,1.2c0,.014,0,.026,0,.04a9.13,9.13,0,0,1-1.772,3.856l5.472,5.472a1.5,1.5,0,1,1-2.121,2.121Z" transform="translate(1248 2977)"/>
      <path id="多边形_6" data-name="多边形 6" d="M5.5,0,6.793,3.825,11,5,6.793,6.175,5.5,10,4.207,6.175,0,5,4.208,3.825Z" transform="translate(1259.5 2976.5)"/>
    </g>
  </g>
</svg>
