<svg xmlns="http://www.w3.org/2000/svg" xmlns:xlink="http://www.w3.org/1999/xlink" width="30" height="30" viewBox="0 0 30 30">
  <defs>
    <clipPath id="clip-_14-Partly_Sunny_w_Showers">
      <rect width="30" height="30"/>
    </clipPath>
  </defs>
  <g id="_14-Partly_Sunny_w_Showers" data-name="14-Partly Sunny w/ Showers" clip-path="url(#clip-_14-Partly_Sunny_w_Showers)">
    <g id="组_628" data-name="组 628">
      <path id="减去_2" data-name="减去 2" d="M-2040.035,20.98h0l-1.417-1.417a4.675,4.675,0,0,0-.453-1.8l.739-.739,2.546,2.546-1.414,1.413Zm-3.113-4.807h0a7.076,7.076,0,0,0-2.6-1.371,12.033,12.033,0,0,0-1.389-3.221,8.32,8.32,0,0,0-5.505-3.989A6.343,6.343,0,0,1-2048,5.6a6.408,6.408,0,0,1,6.4,6.4,6.4,6.4,0,0,1-1.547,4.173ZM-2036,12.8h-3.6v-2h3.6v2Zm-5.166-6.22h0l-1.413-1.413,2.545-2.546,1.415,1.414-2.545,2.545Zm-13.269,0h0l-2.544-2.545,1.414-1.414,2.545,2.546-1.413,1.413Zm7.635-2.98h-2V0h2V3.6Z" transform="translate(2066 0.399)" fill="#ffd10a"/>
      <g id="组_622" data-name="组 622" transform="translate(-2378 -212.372)">
        <g id="路径_1" data-name="路径 1" transform="translate(2378 221.002)">
          <path id="减去_4" data-name="减去 4" d="M19.508,16.721h0V15.061a4.652,4.652,0,0,0,.876-.5,3.235,3.235,0,0,0,1.4-2.674A2.959,2.959,0,0,0,20.5,9.3a5.192,5.192,0,0,0-1.614-.8l-.927-.213-.218-.953a9.742,9.742,0,0,0-1.315-2.879,6.052,6.052,0,0,0-4.955-2.9l-.193,0A5.064,5.064,0,0,0,7.042,3.833a8.768,8.768,0,0,0-1.27,2.559L5.56,7.24l-.852.252A6.507,6.507,0,0,0,3.117,8.3,3.2,3.2,0,0,0,1.569,10.7,4.919,4.919,0,0,0,2.7,14.3a3.064,3.064,0,0,0,.914.714v1.654A4.629,4.629,0,0,1,.982,14.595,6.709,6.709,0,0,1,.015,10.6a4.8,4.8,0,0,1,2.209-3.58A7.96,7.96,0,0,1,4.266,6,10.27,10.27,0,0,1,5.724,3,7.505,7.505,0,0,1,7.877.938,6.373,6.373,0,0,1,11.273,0c.081,0,.165,0,.248,0a7.37,7.37,0,0,1,3.823,1.189,8.509,8.509,0,0,1,2.368,2.39,11.372,11.372,0,0,1,1.543,3.405,6.826,6.826,0,0,1,2.084,1,4.561,4.561,0,0,1,2,3.942,4.746,4.746,0,0,1-1.671,3.6,6.212,6.212,0,0,1-2.161,1.194Z" fill="#212121" stroke="rgba(0,0,0,0)" stroke-miterlimit="10" stroke-width="1"/>
        </g>
      </g>
      <g id="组_633" data-name="组 633" transform="translate(-0.82)">
        <rect id="矩形_796" data-name="矩形 796" width="2" height="10" rx="1" transform="translate(7.239 19.813) rotate(14)" fill="#97d8ff"/>
        <rect id="矩形_797" data-name="矩形 797" width="2" height="8" rx="1" transform="translate(12.239 19.813) rotate(14)" fill="#97d8ff"/>
        <rect id="矩形_798" data-name="矩形 798" width="2" height="10" rx="1" transform="translate(17.239 19.813) rotate(14)" fill="#97d8ff"/>
      </g>
    </g>
  </g>
</svg>
