<svg xmlns="http://www.w3.org/2000/svg" xmlns:xlink="http://www.w3.org/1999/xlink" width="30" height="30" viewBox="0 0 30 30">
  <defs>
    <clipPath id="clip-_16-Mostly_Cloudy_w_T-Storms">
      <rect width="30" height="30"/>
    </clipPath>
  </defs>
  <g id="_16-Mostly_Cloudy_w_T-Storms" data-name="16-Mostly Cloudy w/ T-Storms" clip-path="url(#clip-_16-Mostly_Cloudy_w_T-Storms)">
    <g id="组_637" data-name="组 637" transform="translate(0 -2)">
      <g id="组_622" data-name="组 622" transform="translate(-2377 -212.372)">
        <g id="路径_1" data-name="路径 1" transform="translate(2378 221.002)">
          <path id="减去_4" data-name="减去 4" d="M6.614,16.769H4.266a3.978,3.978,0,0,1-2.725-1.43A6.486,6.486,0,0,1,.015,10.6a4.8,4.8,0,0,1,2.209-3.58A7.958,7.958,0,0,1,4.266,6,10.2,10.2,0,0,1,5.724,3,7.506,7.506,0,0,1,7.877.937,6.374,6.374,0,0,1,11.274,0c.1,0,.176,0,.248,0a7.372,7.372,0,0,1,3.823,1.189,8.505,8.505,0,0,1,2.368,2.39,11.3,11.3,0,0,1,1.543,3.405,6.792,6.792,0,0,1,2.083,1,4.562,4.562,0,0,1,2,3.942A4.822,4.822,0,0,1,21.3,15.821a6.181,6.181,0,0,1-1.961.948H17.508V15.212h1.61a4.815,4.815,0,0,0,1.266-.65,3.232,3.232,0,0,0,1.4-2.674A2.959,2.959,0,0,0,20.5,9.3a5.189,5.189,0,0,0-1.614-.8l-.927-.213-.217-.952a9.83,9.83,0,0,0-1.315-2.88,6.051,6.051,0,0,0-4.956-2.9c-.059,0-.12,0-.193,0A5.066,5.066,0,0,0,7.041,3.834,8.682,8.682,0,0,0,5.772,6.392l-.212.847-.852.252A6.6,6.6,0,0,0,3.116,8.3,3.2,3.2,0,0,0,1.569,10.7,4.922,4.922,0,0,0,2.7,14.3a2.514,2.514,0,0,0,1.609.912h2.3v1.556Z" fill="#212121" stroke="rgba(0,0,0,0)" stroke-miterlimit="10" stroke-width="1"/>
        </g>
      </g>
      <g id="路径_1-2" data-name="路径 1" transform="translate(0.037 -0.892)">
        <path id="减去_6" data-name="减去 6" d="M-2073.965,186.341h-1.755a4.994,4.994,0,0,0,.071-.715,4.342,4.342,0,0,0-.052-.812h1.52a4.649,4.649,0,0,0,1.241-.637,3.171,3.171,0,0,0,1.377-2.623,2.906,2.906,0,0,0-1.266-2.539,5.1,5.1,0,0,0-1.584-.786l-.909-.21-.213-.934a9.566,9.566,0,0,0-1.29-2.825,5.936,5.936,0,0,0-4.862-2.839c-.058,0-.118,0-.189,0a4.967,4.967,0,0,0-4.152,2.235c-.054.074-.11.153-.165.235a7.685,7.685,0,0,0-1.294-.157c-.091,0-.167,0-.237,0l-.161,0a6.8,6.8,0,0,1,6.009-3.837c.091,0,.168,0,.243,0a7.231,7.231,0,0,1,3.75,1.167,8.345,8.345,0,0,1,2.323,2.345,11.187,11.187,0,0,1,1.514,3.34,6.7,6.7,0,0,1,2.044.982,4.475,4.475,0,0,1,1.965,3.867,4.731,4.731,0,0,1-2,3.815,5.969,5.969,0,0,1-1.924.93Z" transform="translate(2100 -164)" fill="#212121" stroke="rgba(0,0,0,0)" stroke-miterlimit="10" stroke-width="1"/>
      </g>
      <path id="路径_9" data-name="路径 9" d="M2394.331,233.2l-5.157,6.441h2.473v5.04l4.811-6.288h-2.127Z" transform="translate(-2379.479 -215.077)" fill="#fdd130"/>
    </g>
  </g>
</svg>
