<svg xmlns="http://www.w3.org/2000/svg" xmlns:xlink="http://www.w3.org/1999/xlink" width="30" height="30" viewBox="0 0 30 30">
  <defs>
    <clipPath id="clip-_18-Rain">
      <rect width="30" height="30"/>
    </clipPath>
  </defs>
  <g id="_18-Rain" data-name="18-Rain" clip-path="url(#clip-_18-Rain)">
    <g id="组_632" data-name="组 632" transform="translate(0 -0.048)">
      <g id="路径_1" data-name="路径 1" transform="translate(-0.065 -2.341)">
        <path id="减去_4" data-name="减去 4" d="M-2369.436-195.108h-3.018a5.112,5.112,0,0,1-3.5-1.838,8.335,8.335,0,0,1-1.961-6.086,6.172,6.172,0,0,1,2.839-4.6,10.229,10.229,0,0,1,2.625-1.315,13.115,13.115,0,0,1,1.873-3.855,9.644,9.644,0,0,1,2.767-2.65,8.191,8.191,0,0,1,4.365-1.2c.128,0,.226,0,.319,0a9.474,9.474,0,0,1,4.913,1.528,10.932,10.932,0,0,1,3.043,3.071,14.522,14.522,0,0,1,1.983,4.376,8.729,8.729,0,0,1,2.677,1.287,5.863,5.863,0,0,1,2.574,5.067,6.2,6.2,0,0,1-2.625,5,7.943,7.943,0,0,1-2.52,1.218h-2.353v-2h2.069a6.188,6.188,0,0,0,1.627-.835,4.154,4.154,0,0,0,1.8-3.436,3.8,3.8,0,0,0-1.659-3.326,6.667,6.667,0,0,0-2.074-1.031l-1.192-.274-.279-1.224a12.63,12.63,0,0,0-1.69-3.7,7.777,7.777,0,0,0-6.369-3.721c-.076,0-.155,0-.248,0a6.511,6.511,0,0,0-5.44,2.927,11.159,11.159,0,0,0-1.631,3.288l-.272,1.089-1.1.324a8.488,8.488,0,0,0-2.046,1.035,4.119,4.119,0,0,0-1.989,3.093,6.326,6.326,0,0,0,1.455,4.622,3.231,3.231,0,0,0,2.067,1.172h2.962v2Z" transform="translate(2378 221.001)" fill="#212121" stroke="rgba(0,0,0,0)" stroke-miterlimit="10" stroke-width="1"/>
      </g>
      <rect id="矩形_796" data-name="矩形 796" width="2" height="10" rx="1" transform="translate(13.239 17.907) rotate(14)" fill="#97d8ff"/>
      <rect id="矩形_797" data-name="矩形 797" width="2" height="8" rx="1" transform="translate(18.239 17.907) rotate(14)" fill="#97d8ff"/>
    </g>
  </g>
</svg>
