<svg xmlns="http://www.w3.org/2000/svg" xmlns:xlink="http://www.w3.org/1999/xlink" width="30" height="30" viewBox="0 0 30 30">
  <defs>
    <clipPath id="clip-_23-Mostly_Cloudy_w_Snow">
      <rect width="30" height="30"/>
    </clipPath>
  </defs>
  <g id="_23-Mostly_Cloudy_w_Snow" data-name="23-Mostly Cloudy w/ Snow" clip-path="url(#clip-_23-Mostly_Cloudy_w_Snow)">
    <g id="组_637" data-name="组 637">
      <g id="组_622" data-name="组 622" transform="translate(-2377 -212.372)">
        <g id="路径_1" data-name="路径 1" transform="translate(2378 221.002)">
          <path id="减去_4" data-name="减去 4" d="M5.614,16.77H4.266A3.98,3.98,0,0,1,1.54,15.337,6.484,6.484,0,0,1,.015,10.6a4.8,4.8,0,0,1,2.209-3.58A7.96,7.96,0,0,1,4.266,6,10.27,10.27,0,0,1,5.724,3,7.505,7.505,0,0,1,7.877.938,6.373,6.373,0,0,1,11.273,0c.081,0,.165,0,.248,0a7.37,7.37,0,0,1,3.823,1.189,8.509,8.509,0,0,1,2.368,2.39,11.372,11.372,0,0,1,1.543,3.405,6.826,6.826,0,0,1,2.084,1,4.561,4.561,0,0,1,2,3.942,4.823,4.823,0,0,1-2.042,3.89,6.174,6.174,0,0,1-1.961.948H17.508V15.212h1.61a4.765,4.765,0,0,0,1.266-.649,3.235,3.235,0,0,0,1.4-2.674A2.959,2.959,0,0,0,20.5,9.3a5.192,5.192,0,0,0-1.614-.8l-.927-.213-.218-.953a9.742,9.742,0,0,0-1.315-2.879,6.052,6.052,0,0,0-4.955-2.9l-.193,0A5.064,5.064,0,0,0,7.042,3.833a8.768,8.768,0,0,0-1.27,2.559L5.56,7.24l-.852.252A6.507,6.507,0,0,0,3.117,8.3,3.2,3.2,0,0,0,1.569,10.7,4.919,4.919,0,0,0,2.7,14.3a2.511,2.511,0,0,0,1.609.912h1.3v1.557Z" fill="#212121" stroke="rgba(0,0,0,0)" stroke-miterlimit="10" stroke-width="1"/>
        </g>
      </g>
      <g id="路径_1-2" data-name="路径 1" transform="translate(0.036 -0.892)">
        <path id="减去_6" data-name="减去 6" d="M-2073.965,186.341h-1.755a4.994,4.994,0,0,0,.071-.715,4.342,4.342,0,0,0-.052-.812h1.52a4.649,4.649,0,0,0,1.241-.637,3.171,3.171,0,0,0,1.377-2.623,2.906,2.906,0,0,0-1.266-2.539,5.1,5.1,0,0,0-1.584-.786l-.909-.21-.213-.934a9.566,9.566,0,0,0-1.29-2.825,5.936,5.936,0,0,0-4.862-2.839c-.058,0-.118,0-.189,0a4.967,4.967,0,0,0-4.152,2.235c-.054.074-.11.153-.165.235a7.685,7.685,0,0,0-1.294-.157c-.091,0-.167,0-.237,0l-.161,0a6.8,6.8,0,0,1,6.009-3.837c.091,0,.168,0,.243,0a7.231,7.231,0,0,1,3.75,1.167,8.345,8.345,0,0,1,2.323,2.345,11.187,11.187,0,0,1,1.514,3.34,6.7,6.7,0,0,1,2.044.982,4.475,4.475,0,0,1,1.965,3.867,4.731,4.731,0,0,1-2,3.815,5.969,5.969,0,0,1-1.924.93Z" transform="translate(2100 -164)" fill="#212121" stroke="rgba(0,0,0,0)" stroke-miterlimit="10" stroke-width="1"/>
      </g>
      <g id="组_638" data-name="组 638" transform="translate(1.663 -3)">
        <path id="联合_7" data-name="联合 7" d="M2.6,6.751v-1.7L1.125,5.9a.75.75,0,0,1-.75-1.3L1.848,3.75.375,2.9a.75.75,0,0,1,.75-1.3L2.6,2.451V.75a.75.75,0,0,1,1.5,0v1.7L5.572,1.6a.75.75,0,0,1,.75,1.3l-1.473.85L6.322,4.6a.75.75,0,0,1-.75,1.3L4.1,5.049v1.7a.75.75,0,0,1-1.5,0Z" transform="translate(7.66 24)" fill="#97d8ff"/>
      </g>
    </g>
  </g>
</svg>
