<svg xmlns="http://www.w3.org/2000/svg" xmlns:xlink="http://www.w3.org/1999/xlink" width="30" height="30" viewBox="0 0 30 30">
  <defs>
    <clipPath id="clip-_24-Ice_1">
      <rect width="30" height="30"/>
    </clipPath>
  </defs>
  <g id="_24-Ice_1" data-name="24-Ice – 1" clip-path="url(#clip-_24-Ice_1)">
    <path id="路径_23" data-name="路径 23" d="M2173.813,269.282c-2.42,1.039.539,3.334,1.422,4.706S2177,275.9,2176.9,278.2a46.82,46.82,0,0,0,1.324,9.314,9.225,9.225,0,0,0,1.765,3.579c.539.539.294-5.54.539-7.942s1.177-6.373,1.079-8.089,1.617-2.01,2.01,0-.016,8.269,1.324,8.628.735-1.52,1.471-3.775.687-6.03,1.765-5.932.49,4.216.686,5.932.147,4.461.931,4.461.98-4.608,2.549-7.6,2.157-1.177,3.137-2.794,4.412-.882,4.118-2.353-.049-2.451-5.834-2.794S2176.233,268.242,2173.813,269.282Z" transform="translate(-2171.25 -263.835)" fill="#97d8ff" stroke="#93c8e9" stroke-width="1"/>
    <g id="路径_24" data-name="路径 24" transform="translate(-2171.25 -263.835)" fill="none">
      <path d="M2173.813,269.282c-2.42,1.039.539,3.334,1.422,4.706S2177,275.9,2176.9,278.2a46.82,46.82,0,0,0,1.324,9.314,9.225,9.225,0,0,0,1.765,3.579c.539.539.294-5.54.539-7.942s1.177-6.373,1.079-8.089,1.617-2.01,2.01,0-.016,8.269,1.324,8.628.735-1.52,1.471-3.775.687-6.03,1.765-5.932.49,4.216.686,5.932.147,4.461.931,4.461.98-4.608,2.549-7.6,2.157-1.177,3.137-2.794,4.412-.882,4.118-2.353-.049-2.451-5.834-2.794S2176.233,268.242,2173.813,269.282Z" stroke="none"/>
      <path d="M 2183.358642578125 268.5402221679688 L 2183.358642578125 269.5402221679688 C 2176.4873046875 269.5402221679688 2174.67041015625 270.0019836425781 2174.2080078125 270.2005004882813 C 2173.984375 270.296630859375 2173.903564453125 270.3756713867188 2173.88232421875 270.4004211425781 C 2173.88330078125 270.4440612792969 2173.905517578125 270.6255798339844 2174.16064453125 271.0221252441406 C 2174.41650390625 271.4196166992188 2174.787353515625 271.8515930175781 2175.145751953125 272.2693176269531 C 2175.500732421875 272.6826782226563 2175.8359375 273.0731506347656 2176.076171875 273.4470520019531 C 2176.24609375 273.711181640625 2176.421875 273.949462890625 2176.592041015625 274.1799621582031 C 2177.28076171875 275.1133728027344 2177.9931640625 276.0785522460938 2177.90087890625 278.2462463378906 C 2177.81005859375 280.3858337402344 2178.7587890625 285.672607421875 2179.1904296875 287.2550354003906 C 2179.247314453125 287.4636840820313 2179.31005859375 287.6671142578125 2179.376953125 287.86376953125 C 2179.383056640625 287.5342712402344 2179.387939453125 287.2133483886719 2179.392333984375 286.924560546875 C 2179.414306640625 285.4933166503906 2179.436767578125 284.0133666992188 2179.53466796875 283.0535888671875 C 2179.634521484375 282.0743103027344 2179.8447265625 280.8436584472656 2180.0478515625 279.6534729003906 C 2180.336181640625 277.9645690917969 2180.662841796875 276.0503234863281 2180.60986328125 275.1234436035156 C 2180.56591796875 274.3587036132813 2180.77978515625 273.6856689453125 2181.211669921875 273.228271484375 C 2181.55322265625 272.866455078125 2182.005126953125 272.6671142578125 2182.484130859375 272.6670227050781 C 2183.260986328125 272.6668701171875 2184.28125 273.2449340820313 2184.599365234375 274.874755859375 C 2184.742919921875 275.6099243164063 2184.785400390625 276.7261047363281 2184.834716796875 278.0185241699219 C 2184.876220703125 279.1014404296875 2184.9189453125 280.2212219238281 2185.025146484375 281.1701965332031 C 2185.036376953125 281.2695922851563 2185.0478515625 281.3632507324219 2185.059326171875 281.4515686035156 C 2185.1328125 280.9019775390625 2185.243408203125 280.278564453125 2185.461669921875 279.6095886230469 C 2185.70947265625 278.8492736816406 2185.865478515625 277.8604736328125 2186.016357421875 276.9042053222656 C 2186.34814453125 274.802001953125 2186.634765625 272.9864807128906 2188.13671875 272.9859924316406 C 2188.18017578125 272.9859924316406 2188.224365234375 272.9880065917969 2188.267822265625 272.9919738769531 C 2189.93359375 273.1434326171875 2189.8857421875 275.4009094238281 2189.835205078125 277.7909545898438 C 2189.818359375 278.5822448730469 2189.802734375 279.3296508789063 2189.857177734375 279.8060913085938 C 2189.8935546875 280.1258239746094 2189.921875 280.4783935546875 2189.94775390625 280.83251953125 C 2190.286376953125 279.3721008300781 2190.72509765625 277.7156372070313 2191.45849609375 276.3175964355469 C 2192.498779296875 274.3346557617188 2193.321533203125 274.015380859375 2194.14208984375 273.8426513671875 C 2194.409912109375 273.7862854003906 2194.437744140625 273.7803955078125 2194.626220703125 273.4695434570313 C 2195.329833984375 272.3087158203125 2196.727783203125 272.0096435546875 2197.74853515625 271.7912902832031 C 2198.002685546875 271.7369079589844 2198.352294921875 271.6620788574219 2198.572998046875 271.5883178710938 C 2198.56884765625 271.5640869140625 2198.564453125 271.5399475097656 2198.56005859375 271.5159606933594 C 2198.446533203125 270.8811645507813 2198.40576171875 270.766357421875 2198.09423828125 270.5894165039063 C 2197.44580078125 270.2209777832031 2196.010498046875 269.9754028320313 2193.706298828125 269.8387145996094 C 2191.274169921875 269.6944274902344 2187.2783203125 269.5402526855469 2183.358642578125 269.5402221679688 L 2183.358642578125 268.5402221679688 M 2183.358642578125 268.5402221679688 C 2187.091552734375 268.5402526855469 2191.07421875 268.6808166503906 2193.765625 268.8404846191406 C 2199.55029296875 269.1836547851563 2199.305419921875 270.1640930175781 2199.599365234375 271.634765625 C 2199.893310546875 273.1054382324219 2196.4619140625 272.3701171875 2195.4814453125 273.9878540039063 C 2194.5009765625 275.6055908203125 2193.912841796875 273.7917785644531 2192.343994140625 276.7821655273438 C 2190.775146484375 279.7725524902344 2190.579345703125 284.3806762695313 2189.794921875 284.3806762695313 C 2189.010498046875 284.3806762695313 2189.0595703125 281.6354064941406 2188.863525390625 279.9196166992188 C 2188.66748046875 278.2038269042969 2189.255615234375 274.0859069824219 2188.17724609375 273.9878540039063 C 2188.163330078125 273.9866027832031 2188.14990234375 273.9859924316406 2188.136474609375 273.9859924316406 C 2187.10009765625 273.986328125 2187.13818359375 277.6934509277344 2186.412353515625 279.9196166992188 C 2185.738037109375 281.9874877929688 2186.190185546875 283.7385559082031 2185.237060546875 283.7385559082031 C 2185.15087890625 283.7385559082031 2185.052734375 283.7241516113281 2184.941650390625 283.6943664550781 C 2183.602294921875 283.3355102539063 2184.01025390625 277.0762939453125 2183.617919921875 275.0663452148438 C 2183.429443359375 274.1007385253906 2182.935791015625 273.6669311523438 2182.484375 273.6670227050781 C 2181.99609375 273.6671447753906 2181.55712890625 274.1748352050781 2181.608154296875 275.0663452148438 C 2181.706298828125 276.7821350097656 2180.774658203125 280.7529907226563 2180.529541015625 283.1550903320313 C 2180.294677734375 285.4560241699219 2180.509765625 291.1304626464844 2180.054443359375 291.1304626464844 C 2180.034423828125 291.1304626464844 2180.01318359375 291.1194763183594 2179.990478515625 291.0967712402344 C 2179.451416015625 290.5575256347656 2178.666748046875 289.1358642578125 2178.2255859375 287.5181274414063 C 2177.784423828125 285.900390625 2176.803955078125 280.5078735351563 2176.90185546875 278.2037963867188 C 2176.999755859375 275.8997192382813 2176.11767578125 275.3605041503906 2175.235107421875 273.9878540039063 C 2174.3525390625 272.6152038574219 2171.3935546875 270.321044921875 2173.8134765625 269.2816772460938 C 2175.107421875 268.7258911132813 2179.068359375 268.5402221679688 2183.358642578125 268.5402221679688 Z" stroke="none" fill="#fff"/>
    </g>
  </g>
</svg>
