<svg xmlns="http://www.w3.org/2000/svg" xmlns:xlink="http://www.w3.org/1999/xlink" width="30" height="30" viewBox="0 0 30 30">
  <defs>
    <clipPath id="clip-_3-Partly_Sunny">
      <rect width="30" height="30"/>
    </clipPath>
  </defs>
  <g id="_3-Partly_Sunny" data-name="3-Partly Sunny" clip-path="url(#clip-_3-Partly_Sunny)">
    <path id="减去_2" data-name="减去 2" d="M-2040.035,20.98h0l-1.417-1.417a4.675,4.675,0,0,0-.453-1.8l.739-.739,2.546,2.546-1.414,1.413Zm-3.113-4.807h0a7.076,7.076,0,0,0-2.6-1.371,12.033,12.033,0,0,0-1.389-3.221,8.32,8.32,0,0,0-5.505-3.989A6.343,6.343,0,0,1-2048,5.6a6.408,6.408,0,0,1,6.4,6.4,6.4,6.4,0,0,1-1.547,4.173ZM-2036,12.8h-3.6v-2h3.6v2Zm-5.166-6.22h0l-1.413-1.413,2.545-2.546,1.415,1.414-2.545,2.545Zm-13.269,0h0l-2.544-2.545,1.414-1.414,2.545,2.546-1.413,1.413Zm7.635-2.98h-2V0h2V3.6Z" transform="translate(2066 2)" fill="#ffd10a"/>
    <g id="路径_1" data-name="路径 1" transform="translate(-2656.953 -393.528)" fill="none">
      <path d="M2661.219,421.528c-2.272-.108-4.472-2.755-4.251-6.166s4.251-4.6,4.251-4.6,1.6-6.182,7.256-6c6.2.233,7.734,6.985,7.734,6.985s4.2,1.022,4.087,4.944-4,4.837-4,4.837Z" stroke="none"/>
      <path d="M 2675.99951171875 419.5277099609375 C 2676.225830078125 419.4474792480469 2676.654296875 419.2709350585938 2677.076416015625 418.9634094238281 C 2677.870361328125 418.3854370117188 2678.26953125 417.6241455078125 2678.296630859375 416.6360778808594 C 2678.322021484375 415.716064453125 2677.974365234375 415.0148620605469 2677.202392578125 414.4293518066406 C 2676.53662109375 413.9242858886719 2675.812255859375 413.7124938964844 2675.727783203125 413.6889343261719 L 2674.53857421875 413.421142578125 L 2674.2587890625 412.1911315917969 C 2674.255859375 412.1779174804688 2673.931884765625 410.8297424316406 2673.008544921875 409.4610900878906 C 2671.8486328125 407.7424011230469 2670.300048828125 406.8340759277344 2668.4052734375 406.7613220214844 C 2668.3447265625 406.7593994140625 2668.286376953125 406.7584533691406 2668.226806640625 406.7584533691406 C 2666.65771484375 406.7584533691406 2665.3955078125 407.4373474121094 2664.36767578125 408.8339233398438 C 2663.53125 409.9703063964844 2663.183349609375 411.1619567871094 2663.155029296875 411.2625427246094 L 2662.90625 412.360595703125 L 2661.79345703125 412.6747131347656 C 2661.654052734375 412.7198791503906 2659.0888671875 413.5785522460938 2658.964599609375 415.4917297363281 C 2658.882568359375 416.7537841796875 2659.25439453125 417.9466247558594 2659.985107421875 418.7643432617188 C 2660.39013671875 419.2177429199219 2660.859619140625 419.4941101074219 2661.279296875 419.5277099609375 L 2675.99951171875 419.5277099609375 M 2676.292724609375 421.5277099609375 L 2661.219482421875 421.5277099609375 C 2658.947509765625 421.4194946289063 2656.7470703125 418.7723693847656 2656.96875 415.3619995117188 C 2657.190185546875 411.95166015625 2661.219482421875 410.7587585449219 2661.219482421875 410.7587585449219 C 2661.219482421875 410.7587585449219 2662.7705078125 404.7584533691406 2668.226806640625 404.7584533691406 C 2668.308837890625 404.7584533691406 2668.391357421875 404.7597961425781 2668.475341796875 404.7625427246094 C 2674.673095703125 404.9954528808594 2676.208984375 411.7475280761719 2676.208984375 411.7475280761719 C 2676.208984375 411.7475280761719 2680.404052734375 412.7690734863281 2680.2958984375 416.6911926269531 C 2680.187744140625 420.61328125 2676.292724609375 421.5277099609375 2676.292724609375 421.5277099609375 Z" stroke="none" fill="#212121"/>
    </g>
  </g>
</svg>
