<svg xmlns="http://www.w3.org/2000/svg" xmlns:xlink="http://www.w3.org/1999/xlink" width="30" height="30" viewBox="0 0 30 30">
  <defs>
    <clipPath id="clip-_30-Hot">
      <rect width="30" height="30"/>
    </clipPath>
  </defs>
  <g id="_30-Hot" data-name="30-Hot" clip-path="url(#clip-_30-Hot)">
    <g id="组_644" data-name="组 644" transform="translate(0 -1)">
      <g id="联合_8" data-name="联合 8" transform="translate(2036 251)" fill="none">
        <path d="M-2028-229a5.986,5.986,0,0,1,2-4.473V-242a4,4,0,0,1,4-4,4,4,0,0,1,4,4v8.528a5.986,5.986,0,0,1,2,4.472,6,6,0,0,1-6,6A6,6,0,0,1-2028-229Z" stroke="none"/>
        <path d="M -2022.000366210938 -224.5001983642578 C -2019.518798828125 -224.5001983642578 -2017.5 -226.5186309814453 -2017.5 -228.9996032714844 C -2017.5 -230.2778472900391 -2018.046875 -231.5005187988281 -2019.000366210938 -232.3540954589844 L -2019.499877929688 -232.80126953125 L -2019.499877929688 -233.4716949462891 L -2019.499877929688 -242.0001068115234 C -2019.499877929688 -243.3783874511719 -2020.62158203125 -244.4997100830078 -2022.000366210938 -244.4997100830078 C -2023.378662109375 -244.4997100830078 -2024.5 -243.3783874511719 -2024.5 -242.0001068115234 L -2024.5 -233.4721221923828 L -2024.5 -232.8016967773438 L -2024.99951171875 -232.3545379638672 C -2025.952880859375 -231.5009918212891 -2026.499755859375 -230.2781677246094 -2026.499755859375 -228.9996032714844 C -2026.499755859375 -226.5186309814453 -2024.481323242188 -224.5001983642578 -2022.000366210938 -224.5001983642578 M -2022.000366210938 -223.0001983642578 C -2025.314208984375 -223.0001983642578 -2027.999755859375 -225.6867065429688 -2027.999755859375 -228.9996032714844 C -2027.999755859375 -230.7766418457031 -2027.227294921875 -232.3734130859375 -2026 -233.4721221923828 L -2026 -242.0001068115234 C -2026 -244.2087097167969 -2024.208984375 -245.9997100830078 -2022.000366210938 -245.9997100830078 C -2019.790893554688 -245.9997100830078 -2017.999877929688 -244.2087097167969 -2017.999877929688 -242.0001068115234 L -2017.999877929688 -233.4716949462891 C -2016.772583007813 -232.3730010986328 -2016 -230.7764434814453 -2016 -228.9996032714844 C -2016 -225.6867065429688 -2018.6865234375 -223.0001983642578 -2022.000366210938 -223.0001983642578 Z" stroke="none" fill="#212121"/>
      </g>
      <path id="联合_9" data-name="联合 9" d="M-2028-234a3,3,0,0,1,2-2.829V-246h2v9.171a3,3,0,0,1,2,2.829,3,3,0,0,1-3,3A3,3,0,0,1-2028-234Z" transform="translate(2039 256)" fill="#ff3b3b"/>
      <path id="联合_10" data-name="联合 10" d="M-2025.75-240.75v-1.5h-1.5a.75.75,0,0,1-.75-.75.75.75,0,0,1,.75-.75h1.5v-1.5a.75.75,0,0,1,.75-.75.75.75,0,0,1,.75.75v1.5h1.5a.75.75,0,0,1,.75.75.75.75,0,0,1-.75.75h-1.5v1.5a.75.75,0,0,1-.75.75A.75.75,0,0,1-2025.75-240.75Z" transform="translate(2049 253)" fill="#212121"/>
    </g>
  </g>
</svg>
