<svg xmlns="http://www.w3.org/2000/svg" xmlns:xlink="http://www.w3.org/1999/xlink" width="30" height="30" viewBox="0 0 30 30">
  <defs>
    <clipPath id="clip-_32-Windy">
      <rect width="30" height="30"/>
    </clipPath>
  </defs>
  <g id="_32-Windy" data-name="32-Windy" clip-path="url(#clip-_32-Windy)">
    <g id="组_634" data-name="组 634" transform="translate(1 0.501)">
      <path id="联合_5" data-name="联合 5" d="M-2027.237-114.5a.7.7,0,0,1-.762-.751.7.7,0,0,1,.762-.751h5.811a4.232,4.232,0,0,1-1.011-2.749,4.255,4.255,0,0,1,4.249-4.251,4.256,4.256,0,0,1,4.251,4.251,4.255,4.255,0,0,1-4.251,4.25Zm6.3-4.25a2.753,2.753,0,0,0,2.75,2.75,2.753,2.753,0,0,0,2.75-2.75,2.754,2.754,0,0,0-2.75-2.75A2.753,2.753,0,0,0-2020.937-118.75Z" transform="translate(2031 125.5)" fill="#212121"/>
      <path id="联合_4" data-name="联合 4" d="M-2027.237-114.5a.7.7,0,0,1-.762-.751.7.7,0,0,1,.762-.751h14.811a4.232,4.232,0,0,1-1.011-2.749,4.255,4.255,0,0,1,4.249-4.251,4.256,4.256,0,0,1,4.251,4.251,4.255,4.255,0,0,1-4.251,4.25Zm15.3-4.25a2.753,2.753,0,0,0,2.75,2.75,2.753,2.753,0,0,0,2.75-2.75,2.754,2.754,0,0,0-2.75-2.75A2.753,2.753,0,0,0-2011.937-118.75Z" transform="translate(2031 129.499)" fill="#212121"/>
      <path id="联合_3" data-name="联合 3" d="M-2020.127-118.751a4.231,4.231,0,0,1,1.01-2.748h-8.12a.7.7,0,0,1-.762-.751.7.7,0,0,1,.762-.751h11.36a4.255,4.255,0,0,1,4.25,4.25,4.255,4.255,0,0,1-4.25,4.251A4.255,4.255,0,0,1-2020.127-118.751Zm1.5,0a2.754,2.754,0,0,0,2.75,2.75,2.753,2.753,0,0,0,2.75-2.75,2.753,2.753,0,0,0-2.75-2.749A2.753,2.753,0,0,0-2018.628-118.751Z" transform="translate(2031 140.498)" fill="#212121"/>
    </g>
  </g>
</svg>
