<svg xmlns="http://www.w3.org/2000/svg" xmlns:xlink="http://www.w3.org/1999/xlink" width="30" height="30" viewBox="0 0 30 30">
  <defs>
    <clipPath id="clip-_34-Mostly_Clear">
      <rect width="30" height="30"/>
    </clipPath>
  </defs>
  <g id="_34-Mostly_Clear" data-name="34-Mostly Clear" clip-path="url(#clip-_34-Mostly_Clear)">
    <path id="减去_7" data-name="减去 7" d="M-2009.88-143.59h0c0-.054.006-.109.008-.165.083-3.012-3.141-3.831-3.173-3.839a8.927,8.927,0,0,0-1.2-2.644,5.96,5.96,0,0,0-4.807-2.78q-.1,0-.194,0a4.945,4.945,0,0,0-3.533,1.426,10.616,10.616,0,0,1-.221-2.159,10.528,10.528,0,0,1,2.335-6.6,10.541,10.541,0,0,1,5.849-3.64,8.934,8.934,0,0,0-1.685,5.243,9.01,9.01,0,0,0,9,9,8.938,8.938,0,0,0,5.244-1.685,10.541,10.541,0,0,1-3.641,5.849,10.556,10.556,0,0,1-3.982,2Z" transform="translate(2028 169)" fill="#ffd53e"/>
    <g id="路径_2" data-name="路径 2" transform="translate(-2656.353 -387.815)" fill="none">
      <path d="M2659.911,416.384c-1.575-.075-3.1-1.91-2.947-4.275s2.947-3.191,2.947-3.191,1.107-4.286,5.03-4.157c4.3.161,5.362,4.843,5.362,4.843s2.908.708,2.833,3.427a3.658,3.658,0,0,1-2.775,3.353Z" stroke="none"/>
      <path d="M 2670.137939453125 414.8842468261719 C 2670.290771484375 414.8284912109375 2670.56787109375 414.7112426757813 2670.837646484375 414.5147705078125 C 2671.364990234375 414.1308898925781 2671.618896484375 413.6463012695313 2671.636962890625 412.9900207519531 C 2671.6533203125 412.3937072753906 2671.427978515625 411.9383850097656 2670.927978515625 411.5570983886719 C 2670.486572265625 411.2206115722656 2670.003173828125 411.0771789550781 2669.94140625 411.0597534179688 L 2669.050537109375 410.8606567382813 L 2668.84033203125 409.9364929199219 C 2668.83837890625 409.9275207519531 2668.608642578125 408.9987487792969 2667.990234375 408.0821533203125 C 2667.196533203125 406.9059448242188 2666.181884765625 406.3099975585938 2664.888671875 406.2603759765625 C 2664.848388671875 406.2590942382813 2664.80859375 406.2584533691406 2664.769287109375 406.2584533691406 C 2663.721923828125 406.2584533691406 2662.8779296875 406.7123413085938 2662.188720703125 407.6460571289063 C 2661.617919921875 408.4195251464844 2661.380615234375 409.2335815429688 2661.3623046875 409.2979431152344 L 2661.161865234375 410.1124877929688 L 2660.3369140625 410.356689453125 C 2660.319091796875 410.3619995117188 2658.54296875 410.9433898925781 2658.4609375 412.2070922851563 C 2658.406005859375 413.0517578125 2658.6533203125 413.848388671875 2659.1396484375 414.3927612304688 C 2659.39599609375 414.6796875 2659.699462890625 414.8616638183594 2659.95751953125 414.8842468261719 L 2670.137939453125 414.8842468261719 M 2670.361083984375 416.3842468261719 L 2659.9111328125 416.3842468261719 C 2658.3359375 416.3092041015625 2656.810302734375 414.4740295410156 2656.964111328125 412.1097106933594 C 2657.117431640625 409.745361328125 2659.9111328125 408.9183959960938 2659.9111328125 408.9183959960938 C 2659.9111328125 408.9183959960938 2660.986328125 404.7584533691406 2664.769287109375 404.7584533691406 C 2664.826171875 404.7584533691406 2664.88330078125 404.7593994140625 2664.94140625 404.7612915039063 C 2669.23828125 404.9227905273438 2670.302978515625 409.6038208007813 2670.302978515625 409.6038208007813 C 2670.302978515625 409.6038208007813 2673.211181640625 410.3120727539063 2673.136474609375 413.0312194824219 C 2673.061279296875 415.7503051757813 2670.361083984375 416.3842468261719 2670.361083984375 416.3842468261719 Z" stroke="none" fill="#212121"/>
    </g>
  </g>
</svg>
