<svg xmlns="http://www.w3.org/2000/svg" xmlns:xlink="http://www.w3.org/1999/xlink" width="30" height="30" viewBox="0 0 30 30">
  <defs>
    <clipPath id="clip-_39-Partly_Cloudy_w_Showers_1">
      <rect width="30" height="30"/>
    </clipPath>
  </defs>
  <g id="_39-Partly_Cloudy_w_Showers_1" data-name="39-Partly Cloudy w/ Showers – 1" clip-path="url(#clip-_39-Partly_Cloudy_w_Showers_1)">
    <g id="组_643" data-name="组 643" transform="translate(1 0.241)">
      <g id="组_636" data-name="组 636" transform="translate(0 -2)">
        <g id="组_622" data-name="组 622" transform="translate(-2377 -212.372)">
          <g id="路径_1" data-name="路径 1" transform="translate(2378 221.002)">
            <path id="减去_4" data-name="减去 4" d="M4.725,16.77H4.266A3.98,3.98,0,0,1,1.54,15.337,6.484,6.484,0,0,1,.015,10.6a4.8,4.8,0,0,1,2.209-3.58A7.96,7.96,0,0,1,4.266,6,10.27,10.27,0,0,1,5.724,3,7.505,7.505,0,0,1,7.877.938,6.373,6.373,0,0,1,11.273,0c.081,0,.165,0,.248,0a7.37,7.37,0,0,1,3.823,1.189,8.509,8.509,0,0,1,2.368,2.39,11.372,11.372,0,0,1,1.543,3.405,6.826,6.826,0,0,1,2.084,1,4.561,4.561,0,0,1,2,3.942,4.823,4.823,0,0,1-2.042,3.89,6.174,6.174,0,0,1-1.961.948h-.72V15.212h.5a4.765,4.765,0,0,0,1.266-.649,3.235,3.235,0,0,0,1.4-2.674A2.959,2.959,0,0,0,20.5,9.3a5.192,5.192,0,0,0-1.614-.8l-.927-.213-.218-.953a9.742,9.742,0,0,0-1.315-2.879,6.052,6.052,0,0,0-4.955-2.9l-.193,0A5.064,5.064,0,0,0,7.042,3.833a8.768,8.768,0,0,0-1.27,2.559L5.56,7.24l-.852.252A6.507,6.507,0,0,0,3.117,8.3,3.2,3.2,0,0,0,1.569,10.7,4.919,4.919,0,0,0,2.7,14.3a2.511,2.511,0,0,0,1.609.912h.415v1.557Z" fill="#fff" stroke="rgba(0,0,0,0)" stroke-miterlimit="10" stroke-width="1"/>
          </g>
          <g id="组_633" data-name="组 633" transform="translate(2378.96 213.994)">
            <rect id="矩形_796" data-name="矩形 796" width="1.681" height="8.407" rx="0.841" transform="translate(6.853 19.813) rotate(14)" fill="#97d8ff"/>
            <rect id="矩形_797" data-name="矩形 797" width="1.681" height="6.726" rx="0.841" transform="translate(11.057 19.813) rotate(14)" fill="#97d8ff"/>
            <rect id="矩形_798" data-name="矩形 798" width="1.681" height="8.407" rx="0.841" transform="translate(15.261 19.813) rotate(14)" fill="#97d8ff"/>
          </g>
        </g>
      </g>
      <path id="减去_12" data-name="减去 12" d="M-1966.635-316.257h0c-.607-1.478-2.4-5.107-5.97-6.891a5.956,5.956,0,0,1,1.245-2.79,5.963,5.963,0,0,1,3.311-2.061,5.058,5.058,0,0,0-.953,2.968,5.1,5.1,0,0,0,5.095,5.095,5.064,5.064,0,0,0,2.969-.953,5.965,5.965,0,0,1-2.062,3.311,5.965,5.965,0,0,1-3.635,1.321Z" transform="translate(1987.604 328.759)" fill="#ffd53e"/>
    </g>
  </g>
</svg>
