<svg xmlns="http://www.w3.org/2000/svg" xmlns:xlink="http://www.w3.org/1999/xlink" width="30" height="30" viewBox="0 0 30 30">
  <defs>
    <clipPath id="clip-_4-Intermittent_Clouds_1">
      <rect width="30" height="30"/>
    </clipPath>
  </defs>
  <g id="_4-Intermittent_Clouds_1" data-name="4-Intermittent Clouds – 1" clip-path="url(#clip-_4-Intermittent_Clouds_1)">
    <g id="组_619" data-name="组 619" transform="translate(1 2)">
      <g id="路径_3" data-name="路径 3" transform="translate(-2657.954 -398.635)" fill="none">
        <path d="M2661.883,424.135c-2.625-.125-5.168-3.184-4.912-7.124s4.912-5.319,4.912-5.319,1.845-7.143,8.384-6.929c7.162.269,8.936,8.071,8.936,8.071s4.847,1.18,4.723,5.712-4.626,5.589-4.626,5.589Z" stroke="none"/>
        <path d="M 2679.012939453125 422.1350708007813 C 2679.28369140625 422.043212890625 2679.837646484375 421.8245849609375 2680.388427734375 421.4234619140625 C 2681.388916015625 420.6950378417969 2681.891845703125 419.7359008789063 2681.92626953125 418.4915466308594 C 2681.958251953125 417.3299560546875 2681.499755859375 416.4085083007813 2680.524658203125 415.674560546875 C 2679.699462890625 415.0534057617188 2678.810302734375 414.7998046875 2678.722900390625 414.7759094238281 L 2677.53173828125 414.50439453125 L 2677.252685546875 413.2778015136719 C 2677.2490234375 413.2619323730469 2676.861328125 411.6466979980469 2675.7626953125 410.0183410644531 C 2674.36376953125 407.9454040527344 2672.4912109375 406.849853515625 2670.197021484375 406.7620239257813 C 2670.123291015625 406.7596435546875 2670.05224609375 406.7584838867188 2669.979736328125 406.7584838867188 C 2668.05517578125 406.7584838867188 2666.51123046875 407.5891418457031 2665.25927734375 409.2979431152344 C 2664.2509765625 410.6742858886719 2663.84228515625 412.1104125976563 2663.818359375 412.1967468261719 L 2663.547607421875 413.2847290039063 L 2662.45068359375 413.6094665527344 C 2662.417724609375 413.6192932128906 2659.128173828125 414.6611328125 2658.96728515625 417.1405334472656 C 2658.866943359375 418.6814575195313 2659.3251953125 420.1425476074219 2660.224609375 421.149169921875 C 2660.749267578125 421.7366027832031 2661.372314453125 422.0940856933594 2661.9404296875 422.1350708007813 L 2679.012939453125 422.1350708007813 M 2679.2998046875 424.1350708007813 L 2661.883056640625 424.1350708007813 C 2659.257568359375 424.0100402832031 2656.715087890625 420.9513244628906 2656.971435546875 417.0107116699219 C 2657.227294921875 413.0700988769531 2661.883056640625 411.6917419433594 2661.883056640625 411.6917419433594 C 2661.883056640625 411.6917419433594 2663.6748046875 404.7584838867188 2669.979736328125 404.7584838867188 C 2670.074462890625 404.7584838867188 2670.169921875 404.7600402832031 2670.266845703125 404.7632141113281 C 2677.428466796875 405.0323181152344 2679.202880859375 412.8342590332031 2679.202880859375 412.8342590332031 C 2679.202880859375 412.8342590332031 2684.05029296875 414.0146179199219 2683.925537109375 418.5465698242188 C 2683.80029296875 423.0784606933594 2679.2998046875 424.1350708007813 2679.2998046875 424.1350708007813 Z" stroke="none" fill="#fff"/>
      </g>
      <path id="减去_3" data-name="减去 3" d="M9.534,13.366h0A9.59,9.59,0,0,0,5.45,10.614,12.487,12.487,0,0,0,4.238,7.328a9.16,9.16,0,0,0-5.2-4.557,7.5,7.5,0,1,1,10.5,10.594Z" transform="translate(16.64 3)" fill="#ffd10a"/>
    </g>
  </g>
</svg>
