<svg xmlns="http://www.w3.org/2000/svg" xmlns:xlink="http://www.w3.org/1999/xlink" width="30" height="30" viewBox="0 0 30 30">
  <defs>
    <clipPath id="clip-_5-Hazy_Sunshine_1">
      <rect width="30" height="30"/>
    </clipPath>
  </defs>
  <g id="_5-Hazy_Sunshine_1" data-name="5-Hazy Sunshine – 1" clip-path="url(#clip-_5-Hazy_Sunshine_1)">
    <g id="组_619" data-name="组 619" transform="translate(1 -0.25)">
      <g id="路径_3" data-name="路径 3" transform="translate(-2657.954 -399.462)" fill="none">
        <path d="M2662.093,424.961c-2.737-.13-5.388-3.319-5.121-7.428s5.121-5.546,5.121-5.546,1.924-7.448,8.741-7.224c7.467.281,9.317,8.415,9.317,8.415s5.054,1.231,4.924,5.956-4.823,5.827-4.823,5.827Z" stroke="none"/>
        <path d="M 2679.965087890625 422.9612426757813 C 2680.271728515625 422.8585205078125 2680.9111328125 422.6074829101563 2681.529296875 422.1348571777344 C 2682.53466796875 421.3661193847656 2683.040771484375 420.3666076660156 2683.076416015625 419.0794067382813 C 2683.110595703125 417.837158203125 2682.6201171875 416.8524169921875 2681.5771484375 416.0689392089844 C 2680.70556640625 415.4142150878906 2679.76904296875 415.1468811035156 2679.673095703125 415.1206665039063 L 2678.472900390625 414.8607788085938 L 2678.2021484375 413.6259765625 C 2678.1796875 413.533203125 2677.744873046875 411.7993469238281 2676.57080078125 410.1005554199219 C 2675.10302734375 407.9761352539063 2673.149169921875 406.8529663085938 2670.763671875 406.7621765136719 C 2670.6865234375 406.7597045898438 2670.611572265625 406.7584838867188 2670.53515625 406.7584838867188 C 2668.5263671875 406.7584838867188 2666.846435546875 407.6624145507813 2665.541748046875 409.4451293945313 C 2664.4873046875 410.885986328125 2664.057861328125 412.3869934082031 2664.029052734375 412.4905090332031 L 2663.77392578125 413.588134765625 L 2662.666015625 413.9036865234375 C 2662.58935546875 413.9280395507813 2661.635009765625 414.2398071289063 2660.702392578125 414.9129028320313 C 2659.60400390625 415.7057189941406 2659.03662109375 416.6051940917969 2658.968017578125 417.662841796875 C 2658.862060546875 419.292236328125 2659.34765625 420.8384094238281 2660.300537109375 421.9049377441406 C 2660.86328125 422.5348205566406 2661.53515625 422.9179382324219 2662.150146484375 422.9612426757813 L 2679.965087890625 422.9612426757813 M 2680.252685546875 424.9612426757813 L 2662.09326171875 424.9612426757813 C 2659.35595703125 424.8309020996094 2656.705078125 421.6417541503906 2656.97216796875 417.5331115722656 C 2657.239013671875 413.4244995117188 2662.09326171875 411.9873657226563 2662.09326171875 411.9873657226563 C 2662.09326171875 411.9873657226563 2663.961669921875 404.7584838867188 2670.53515625 404.7584838867188 C 2670.63427734375 404.7584838867188 2670.733642578125 404.7601013183594 2670.834716796875 404.763427734375 C 2678.301513671875 405.0440063476563 2680.151611328125 413.1785888671875 2680.151611328125 413.1785888671875 C 2680.151611328125 413.1785888671875 2685.205810546875 414.4092712402344 2685.07568359375 419.1344604492188 C 2684.945068359375 423.8595886230469 2680.252685546875 424.9612426757813 2680.252685546875 424.9612426757813 Z" stroke="none" fill="#fff"/>
      </g>
      <path id="减去_3" data-name="减去 3" d="M10.584,12.346h0A10.868,10.868,0,0,0,6.871,9.538,15.2,15.2,0,0,0,5.31,6.421,11.879,11.879,0,0,0,0,1.788,7.5,7.5,0,0,1,10.585,12.345Z" transform="translate(16.64 3)" fill="#ffd10a"/>
    </g>
  </g>
</svg>
