<svg xmlns="http://www.w3.org/2000/svg" xmlns:xlink="http://www.w3.org/1999/xlink" width="30" height="30" viewBox="0 0 30 30">
  <defs>
    <clipPath id="clip-_6-Mostly_Cloudy_1">
      <rect width="30" height="30"/>
    </clipPath>
  </defs>
  <g id="_6-Mostly_Cloudy_1" data-name="6-Mostly Cloudy – 1" clip-path="url(#clip-_6-Mostly_Cloudy_1)">
    <g id="组_619" data-name="组 619" transform="translate(1 0.275)">
      <g id="路径_3" data-name="路径 3" transform="translate(-2657.954 -400.809)" fill="none">
        <path d="M2662.436,426.308c-2.92-.139-5.748-3.541-5.463-7.923s5.463-5.916,5.463-5.916,2.053-7.944,9.324-7.706c7.965.3,9.938,8.976,9.938,8.976s5.391,1.313,5.252,6.353-5.145,6.215-5.145,6.215Z" stroke="none"/>
        <path d="M 2681.522216796875 424.3084716796875 C 2681.827880859375 424.2069702148438 2682.493408203125 423.9515075683594 2683.149169921875 423.4740600585938 C 2684.32177734375 422.6202697753906 2684.911376953125 421.4963073730469 2684.95166015625 420.0380249023438 C 2684.989501953125 418.6641540527344 2684.447021484375 417.576171875 2683.293212890625 416.7118835449219 C 2682.33935546875 415.9975891113281 2681.318359375 415.708740234375 2681.220703125 415.6822509765625 L 2680.020263671875 415.4201049804688 L 2679.749267578125 414.1871032714844 C 2679.72607421875 414.0917358398438 2679.25927734375 412.2223205566406 2677.993408203125 410.3876342773438 C 2676.40185546875 408.0806579589844 2674.281005859375 406.8610229492188 2671.689453125 406.7625122070313 C 2671.60546875 406.7597961425781 2671.524169921875 406.7584838867188 2671.441162109375 406.7584838867188 C 2669.2509765625 406.7584838867188 2667.421142578125 407.7431945800781 2666.002197265625 409.6852722167969 C 2664.857421875 411.2525939941406 2664.396728515625 412.8824157714844 2664.37158203125 412.9736938476563 L 2664.099365234375 414.0627746582031 L 2663.00390625 414.3871459960938 C 2662.993896484375 414.3900451660156 2661.975830078125 414.7098999023438 2660.95849609375 415.4221801757813 C 2659.71533203125 416.2924499511719 2659.0458984375 417.3328857421875 2658.96923828125 418.5147399902344 C 2658.853759765625 420.2882690429688 2659.38427734375 421.9730834960938 2660.42431640625 423.13720703125 C 2661.048828125 423.8363647460938 2661.80029296875 424.2613525390625 2662.4921875 424.3084716796875 L 2681.522216796875 424.3084716796875 M 2681.806396484375 426.3084716796875 L 2662.43603515625 426.3084716796875 C 2659.51611328125 426.16943359375 2656.6884765625 422.7676391601563 2656.973388671875 418.385009765625 C 2657.258056640625 414.0024108886719 2662.43603515625 412.4694213867188 2662.43603515625 412.4694213867188 C 2662.43603515625 412.4694213867188 2664.428955078125 404.7584838867188 2671.441162109375 404.7584838867188 C 2671.546630859375 404.7584838867188 2671.652587890625 404.7602233886719 2671.760498046875 404.7637634277344 C 2679.72509765625 405.0630493164063 2681.69873046875 413.7400817871094 2681.69873046875 413.7400817871094 C 2681.69873046875 413.7400817871094 2687.08984375 415.0528564453125 2686.950927734375 420.0931396484375 C 2686.811767578125 425.1333618164063 2681.806396484375 426.3084716796875 2681.806396484375 426.3084716796875 Z" stroke="none" fill="#fff"/>
      </g>
      <path id="减去_3" data-name="减去 3" d="M11.54,10.662h0A11.651,11.651,0,0,0,8.3,8.9c-.012-.049-1.246-4.9-5.013-7.37a6.5,6.5,0,0,1,8.253,9.133Z" transform="translate(16.64 3)" fill="#ffd10a"/>
    </g>
  </g>
</svg>
