<svg xmlns="http://www.w3.org/2000/svg" xmlns:xlink="http://www.w3.org/1999/xlink" width="30" height="30" viewBox="0 0 30 30">
  <defs>
    <clipPath id="clip-_7-Cloudy_1">
      <rect width="30" height="30"/>
    </clipPath>
  </defs>
  <g id="_7-Cloudy_1" data-name="7-Cloudy – 1" clip-path="url(#clip-_7-Cloudy_1)">
    <g id="组_626" data-name="组 626" transform="translate(-2087 145)">
      <g id="路径_1" data-name="路径 1" transform="translate(2087.036 -145.892)">
        <path id="减去_6" data-name="减去 6" d="M-2073.965,186.341h-1.755a4.994,4.994,0,0,0,.071-.715,4.342,4.342,0,0,0-.052-.812h1.52a4.649,4.649,0,0,0,1.241-.637,3.171,3.171,0,0,0,1.377-2.623,2.906,2.906,0,0,0-1.266-2.539,5.1,5.1,0,0,0-1.584-.786l-.909-.21-.213-.934a9.566,9.566,0,0,0-1.29-2.825,5.936,5.936,0,0,0-4.862-2.839c-.058,0-.118,0-.189,0a4.967,4.967,0,0,0-4.152,2.235c-.054.074-.11.153-.165.235a7.685,7.685,0,0,0-1.294-.157c-.091,0-.167,0-.237,0l-.161,0a6.8,6.8,0,0,1,6.009-3.837c.091,0,.168,0,.243,0a7.231,7.231,0,0,1,3.75,1.167,8.345,8.345,0,0,1,2.323,2.345,11.187,11.187,0,0,1,1.514,3.34,6.7,6.7,0,0,1,2.044.982,4.475,4.475,0,0,1,1.965,3.867,4.731,4.731,0,0,1-2,3.815,5.969,5.969,0,0,1-1.924.93Z" transform="translate(2100 -164)" fill="#fff" stroke="rgba(0,0,0,0)" stroke-miterlimit="10" stroke-width="1"/>
      </g>
      <g id="路径_1-2" data-name="路径 1" transform="translate(2086.936 -141.867)">
        <path id="路径_5" data-name="路径 5" d="M4.593,22.142C2.181,22.027-.155,19.217.081,15.6S4.593,10.71,4.593,10.71s1.7-6.562,7.7-6.365c6.579.248,8.209,7.414,8.209,7.414s4.453,1.085,4.338,5.248-4.25,5.134-4.25,5.134Z" transform="translate(0 0)" fill="none"/>
        <path id="路径_6" data-name="路径 6" d="M20.358,20.491A5.093,5.093,0,0,0,21.7,19.8a3.429,3.429,0,0,0,1.489-2.838,3.141,3.141,0,0,0-1.37-2.747,5.541,5.541,0,0,0-1.713-.851l-.985-.226-.23-1.011A10.414,10.414,0,0,0,17.5,9.07,6.423,6.423,0,0,0,12.236,6c-.069,0-.136,0-.2,0A5.377,5.377,0,0,0,7.539,8.412a9.28,9.28,0,0,0-1.347,2.716l-.225.9-.9.268a6.89,6.89,0,0,0-1.69.855A3.4,3.4,0,0,0,1.729,15.7a5.226,5.226,0,0,0,1.2,3.818,2.664,2.664,0,0,0,1.708.968H20.358m.235,1.652h-16C2.181,22.028-.155,19.218.081,15.6s4.513-4.886,4.513-4.886,1.646-6.369,7.438-6.369c.088,0,.175,0,.264,0,6.579.247,8.21,7.414,8.21,7.414s4.453,1.085,4.338,5.248S20.593,22.143,20.593,22.143Z" transform="translate(0 0)" fill="#fff"/>
      </g>
    </g>
  </g>
</svg>
