<svg xmlns="http://www.w3.org/2000/svg" width="12" height="11.996"><defs><style>.a{fill:#f05514}</style></defs><path class="a" d="M6 10.167A4.161 4.161 0 1 1 10.155 6 4.179 4.179 0 0 1 6 10.167Zm6-4.183-1.366-1.235.552-1.757L9.385 2.6 8.992.8l-1.757.567L5.985 0 4.751 1.365 2.993.814l-.393 1.8-1.8.393.567 1.757L0 6.013l1.366 1.234L.814 9l1.8.392.392 1.8 1.757-.567L6.014 12l1.235-1.365 1.758.552.392-1.8 1.8-.406-.567-1.757L12 5.984Z"/><path class="a" d="M3.372 3.385a3.717 3.717 0 0 1 5.256 0 3.713 3.713 0 0 1 0 5.253 3.717 3.717 0 0 1-5.256 0 3.715 3.715 0 0 1 0-5.255"/></svg>
