<svg xmlns="http://www.w3.org/2000/svg" width="7.497" height="24" viewBox="0 0 7.497 24"><defs><style>.a{fill:#999;}.b{fill:#212121;}</style></defs><g transform="translate(-552.913 -640.641)"><path class="a" d="M6.647-6.94H2.762v3.12h3.58v1.455H2.762V1.979H1.037V-8.4h5.61Z" transform="translate(552.819 662.662)"/><path class="b" d="M4.622-3.909A3.622,3.622,0,0,1,1.963-5a3.632,3.632,0,0,1-1.1-2.67A3.535,3.535,0,0,1,1.95-10.291a3.608,3.608,0,0,1,2.632-1.068,3.7,3.7,0,0,1,2.679,1.075,3.509,3.509,0,0,1,1.1,2.61A3.632,3.632,0,0,1,7.268-5,3.607,3.607,0,0,1,4.622-3.909Zm0-5.675a1.879,1.879,0,0,0-1.37.561,1.842,1.842,0,0,0-.568,1.362,1.949,1.949,0,0,0,.555,1.4A1.8,1.8,0,0,0,4.6-5.685a1.864,1.864,0,0,0,1.37-.587,1.909,1.909,0,0,0,.581-1.389,1.836,1.836,0,0,0-.568-1.369A1.874,1.874,0,0,0,4.622-9.584Z" transform="translate(552.046 652)"/></g></svg>