<svg xmlns="http://www.w3.org/2000/svg" width="7.497" height="23.802" viewBox="0 0 7.497 23.802"><defs><style>.a{fill:#212121;}.b{fill:#999;}</style></defs><g transform="translate(-552.913 -640.641)"><path class="a" d="M4.622-3.909A3.622,3.622,0,0,1,1.963-5a3.632,3.632,0,0,1-1.1-2.67A3.535,3.535,0,0,1,1.95-10.291a3.608,3.608,0,0,1,2.632-1.068,3.7,3.7,0,0,1,2.679,1.075,3.509,3.509,0,0,1,1.1,2.61A3.632,3.632,0,0,1,7.268-5,3.607,3.607,0,0,1,4.622-3.909Zm0-5.675a1.879,1.879,0,0,0-1.37.561,1.842,1.842,0,0,0-.568,1.362,1.949,1.949,0,0,0,.555,1.4A1.8,1.8,0,0,0,4.6-5.685a1.864,1.864,0,0,0,1.37-.587,1.909,1.909,0,0,0,.581-1.389,1.836,1.836,0,0,0-.568-1.369A1.874,1.874,0,0,0,4.622-9.584Z" transform="translate(552.046 652)"/><path class="b" d="M2.864,3.911a5.973,5.973,0,0,1-2.769.577A4.528,4.528,0,0,1-3.341,3.134,4.932,4.932,0,0,1-4.633-.418,5.173,5.173,0,0,1-3.18-4.239,4.972,4.972,0,0,1,.493-5.7a6.019,6.019,0,0,1,2.371.405v1.622a4.23,4.23,0,0,0-2.2-.591A3.451,3.451,0,0,0-1.929-3.235,3.761,3.761,0,0,0-2.922-.5a3.587,3.587,0,0,0,.928,2.594,3.228,3.228,0,0,0,2.439.965A4.368,4.368,0,0,0,2.864,2.4Z" transform="translate(557.546 659.955)"/></g></svg>